<svg xmlns="http://www.w3.org/2000/svg" xmlns:xlink="http://www.w3.org/1999/xlink" width="979.17" height="553.465" viewBox="0 0 979.17 553.465">
  <defs>
    <filter id="Rectangle_17" x="113.374" y="0" width="813.281" height="493.102" filterUnits="userSpaceOnUse">
      <feOffset dx="5" dy="10" input="SourceAlpha"/>
      <feGaussianBlur stdDeviation="3" result="blur"/>
      <feFlood flood-opacity="0.161"/>
      <feComposite operator="in" in2="blur"/>
      <feComposite in="SourceGraphic"/>
    </filter>
    <linearGradient id="linear-gradient" x1="0.605" y1="0.256" x2="0.79" y2="0.852" gradientUnits="objectBoundingBox">
      <stop offset="0" stop-color="#201c3d"/>
      <stop offset="1" stop-color="#362f58"/>
    </linearGradient>
    <filter id="Path_45" x="400.423" y="141.145" width="87.828" height="88.828" filterUnits="userSpaceOnUse">
      <feOffset dy="10" input="SourceAlpha"/>
      <feGaussianBlur stdDeviation="3" result="blur-2"/>
      <feFlood flood-opacity="0.161"/>
      <feComposite operator="in" in2="blur-2"/>
      <feComposite in="SourceGraphic"/>
    </filter>
    <filter id="Rectangle_34" x="0" y="282.979" width="152.677" height="270.486" filterUnits="userSpaceOnUse">
      <feOffset dx="5" dy="10" input="SourceAlpha"/>
      <feGaussianBlur stdDeviation="3" result="blur-3"/>
      <feFlood flood-opacity="0.161"/>
      <feComposite operator="in" in2="blur-3"/>
      <feComposite in="SourceGraphic"/>
    </filter>
    <linearGradient id="linear-gradient-2" x1="0.442" y1="-0.037" x2="0.479" y2="0.909" gradientUnits="objectBoundingBox">
      <stop offset="0" stop-color="#656198"/>
      <stop offset="1" stop-color="#252330"/>
    </linearGradient>
    <filter id="Ellipse_33" x="32.835" y="335.386" width="77.394" height="78.394" filterUnits="userSpaceOnUse">
      <feOffset dy="10" input="SourceAlpha"/>
      <feGaussianBlur stdDeviation="3" result="blur-4"/>
      <feFlood flood-opacity="0.161"/>
      <feComposite operator="in" in2="blur-4"/>
      <feComposite in="SourceGraphic"/>
    </filter>
    <filter id="Path_41" x="556.551" y="260.69" width="422.619" height="292.775" filterUnits="userSpaceOnUse">
      <feOffset dx="5" dy="10" input="SourceAlpha"/>
      <feGaussianBlur stdDeviation="3" result="blur-5"/>
      <feFlood flood-opacity="0.161"/>
      <feComposite operator="in" in2="blur-5"/>
      <feComposite in="SourceGraphic"/>
    </filter>
    <linearGradient id="linear-gradient-3" x1="0.512" y1="0.371" x2="0.808" y2="0.824" gradientUnits="objectBoundingBox">
      <stop offset="0" stop-color="#201c3d"/>
      <stop offset="1" stop-color="#3a3161"/>
    </linearGradient>
    <filter id="Path_45-2" x="612.305" y="357.568" width="87.828" height="88.828" filterUnits="userSpaceOnUse">
      <feOffset dy="10" input="SourceAlpha"/>
      <feGaussianBlur stdDeviation="3" result="blur-6"/>
      <feFlood flood-opacity="0.161"/>
      <feComposite operator="in" in2="blur-6"/>
      <feComposite in="SourceGraphic"/>
    </filter>
  </defs>
  <g id="Group_139" data-name="Group 139" transform="translate(-468.482 -174.511)">
    <g id="Group_135" data-name="Group 135" transform="translate(59.405 16)">
      <g transform="matrix(1, 0, 0, 1, 409.08, 158.51)" filter="url(#Rectangle_17)">
        <rect id="Rectangle_17-2" data-name="Rectangle 17" width="795.281" height="474.102" rx="20" transform="translate(117.37)" fill="#e8e8e8"/>
      </g>
      <rect id="Rectangle_19" data-name="Rectangle 19" width="766.054" height="389.18" rx="10" transform="translate(541.834 181.584)" fill="url(#linear-gradient)"/>
      <circle id="Ellipse_24" data-name="Ellipse 24" cx="4.913" cy="4.913" r="4.913" transform="translate(919.948 164.991)" fill="#5a5656"/>
      <text id="_3:15" data-name="3:15" transform="translate(1249 424.636)" fill="#fff" font-size="7" font-family="Consolas"><tspan x="0" y="0">3:15</tspan></text>
      <text id="_0:51" data-name="0:51" transform="translate(982.84 424.636)" fill="#fff" font-size="7" font-family="Consolas"><tspan x="0" y="0">0:51</tspan></text>
      <rect id="Rectangle_46" data-name="Rectangle 46" width="280.923" height="5.361" rx="2.681" transform="translate(983.84 403.815)" fill="#fff"/>
      <rect id="Rectangle_46-2" data-name="Rectangle 46" width="240.923" height="5.361" rx="2.681" transform="translate(982.84 403.782)" fill="#ffb727"/>
      <ellipse id="Ellipse_25" data-name="Ellipse 25" cx="6.893" cy="6.766" rx="6.893" ry="6.766" transform="translate(1048.518 399.729)" fill="#ffb727"/>
      <line id="Line_9" data-name="Line 9" x2="15.757" transform="translate(1251.445 378.16)" fill="none" stroke="#fff" stroke-width="1"/>
      <line id="Line_10" data-name="Line 10" y2="17.402" transform="translate(1259.324 369.807)" fill="none" stroke="#fff" stroke-width="1"/>
      <g id="Ellipse_28" data-name="Ellipse 28" transform="translate(1112.518 366.254)" fill="#fff" stroke="#fff" stroke-width="1">
        <ellipse cx="10.79" cy="10.477" rx="10.79" ry="10.477" stroke="none"/>
        <ellipse cx="10.79" cy="10.477" rx="10.29" ry="9.977" fill="none"/>
      </g>
      <text id="Mazala-Firm" transform="translate(799.448 455)" fill="#fff" font-size="20" font-family="Candara"><tspan x="0" y="0">Mazala-Firm</tspan></text>
      <text id="Mazala_founders" data-name="Mazala founders" transform="translate(824.305 474.638)" fill="#e5e1e1" font-size="8" font-family="Candara"><tspan x="0" y="0">Mazala founders</tspan></text>
      <circle id="Ellipse_26" data-name="Ellipse 26" cx="2.451" cy="2.451" r="2.451" transform="translate(1264.752 245.68)" fill="#fff"/>
      <circle id="Ellipse_26-2" data-name="Ellipse 26" cx="2.451" cy="2.451" r="2.451" transform="translate(1264.752 252.421)" fill="#fff"/>
      <circle id="Ellipse_26-3" data-name="Ellipse 26" cx="2.451" cy="2.451" r="2.451" transform="translate(1264.752 259.161)" fill="#fff"/>
      <line id="Line_16" data-name="Line 16" y2="17.157" transform="translate(1235.698 245.681)" fill="none" stroke="#fff" stroke-width="2"/>
      <line id="Line_17" data-name="Line 17" y2="8.579" transform="translate(1232.86 254.259)" fill="none" stroke="#fff" stroke-width="2"/>
      <line id="Line_18" data-name="Line 18" y2="13.481" transform="translate(1239.057 249.357)" fill="none" stroke="#fff" stroke-width="2"/>
      <line id="Line_18-2" data-name="Line 18" y2="7.353" transform="translate(1248.352 255.485)" fill="none" stroke="#fff" stroke-width="2"/>
      <line id="Line_19" data-name="Line 19" y2="11.642" transform="translate(1242.155 251.195)" fill="none" stroke="#fff" stroke-width="2"/>
      <line id="Line_20" data-name="Line 20" y2="5.515" transform="translate(1245.253 257.323)" fill="none" stroke="#fff" stroke-width="2"/>
      <circle id="Ellipse_29" data-name="Ellipse 29" cx="7.966" cy="7.966" r="7.966" transform="translate(1159.971 246.906)" fill="#fff"/>
      <circle id="Ellipse_29-2" data-name="Ellipse 29" cx="7.966" cy="7.966" r="7.966" transform="translate(1197.961 246.906)" fill="#fff"/>
      <path id="Rectangle_49" data-name="Rectangle 49" d="M0,0H765.843a0,0,0,0,1,0,0V17.185a10,10,0,0,1-10,10H10a10,10,0,0,1-10-10V0A0,0,0,0,1,0,0Z" transform="translate(542.039 543.684)" fill="rgba(81,80,80,0.62)"/>
      <path id="Path_4" data-name="Path 4" d="M0,1.994,8.416,0V7.973H0Z" transform="translate(549.88 549.391)" fill="#fff"/>
      <path id="Path_6" data-name="Path 6" d="M0,0H8.416V7.3L0,5.758Z" transform="translate(549.88 557.782)" fill="#fff"/>
      <path id="Path_5" data-name="Path 5" d="M0-2.533,7.973-4.548V5.44H0Z" transform="translate(558.739 551.925)" fill="#fff"/>
      <path id="Path_7" data-name="Path 7" d="M0,0H7.973V9.161L0,7.356Z" transform="translate(558.739 557.782)" fill="#fff"/>
      <rect id="Rectangle_50" data-name="Rectangle 50" width="159.339" height="27.185" transform="translate(574.661 543.684)" fill="#363636"/>
      <text id="Type_here_to_search" data-name="Type here to search" transform="translate(598.451 560.191)" fill="#9e9c9c" font-size="8" font-family="SegoeUI, Segoe UI"><tspan x="0" y="0">Type here to search</tspan></text>
      <g id="Ellipse_30" data-name="Ellipse 30" transform="translate(585.442 552.13)" fill="none" stroke="#fff" stroke-width="1">
        <circle cx="4.211" cy="4.211" r="4.211" stroke="none"/>
        <circle cx="4.211" cy="4.211" r="3.711" fill="none"/>
      </g>
      <line id="Line_21" data-name="Line 21" x1="5.147" y2="3.743" transform="translate(580.997 558.447)" fill="none" stroke="#fff" stroke-width="1"/>
      <rect id="Rectangle_51" data-name="Rectangle 51" width="14.758" height="10.874" transform="translate(744.762 551.451)" fill="#efefef"/>
      <rect id="Rectangle_51-2" data-name="Rectangle 51" width="14.758" height="1.553" transform="translate(744.762 548.344)" fill="#efefef"/>
      <rect id="Rectangle_51-3" data-name="Rectangle 51" width="14.758" height="2.33" transform="translate(744.762 563.101)" fill="#efefef"/>
      <line id="Line_22" data-name="Line 22" y2="17.501" transform="translate(761.619 548.083)" fill="none" stroke="#efefef" stroke-width="1"/>
      <rect id="Rectangle_52" data-name="Rectangle 52" width="2.33" height="0.777" transform="translate(760.296 552.227)" fill="#efefef"/>
      <g id="Path_8" data-name="Path 8" transform="translate(1273.862 549.989)" fill="none">
        <path d="M0,0H20.86V14.225H12.825l-2.3,2.3-2.371-2.3H0Z" stroke="none"/>
        <path d="M 1.000001907348633 0.9999971389770508 L 1.000001907348633 13.22472763061523 L 8.56379222869873 13.22472763061523 L 10.51833534240723 15.12064552307129 L 12.41026210784912 13.22472763061523 L 19.8596019744873 13.22472763061523 L 19.8596019744873 0.9999971389770508 L 1.000001907348633 0.9999971389770508 M 1.9073486328125e-06 -1.9073486328125e-06 L 20.8596019744873 -1.9073486328125e-06 L 20.8596019744873 14.22472763061523 L 12.82509231567383 14.22472763061523 L 10.52976226806641 16.5248966217041 L 8.158472061157227 14.22472763061523 L 1.9073486328125e-06 14.22472763061523 L 1.9073486328125e-06 -1.9073486328125e-06 Z" stroke="none" fill="#fff"/>
      </g>
      <text id="_4:17_PM" data-name="4:17 PM" transform="translate(1240 557)" fill="#fff" font-size="5" font-family="SegoeUI, Segoe UI"><tspan x="0" y="0">4:17 PM</tspan></text>
      <text id="_8_10_2021" data-name="8/10/2021" transform="translate(1239 563)" fill="#fff" font-size="5" font-family="SegoeUI, Segoe UI"><tspan x="0" y="0">8/10/2021</tspan></text>
      <text id="ENG_FR" data-name="ENG
FR" transform="translate(1222 557)" fill="#fff" font-size="5" font-family="SegoeUI, Segoe UI"><tspan x="-4.85" y="0">ENG</tspan><tspan x="-2.716" y="6">FR</tspan></text>
      <path id="Path_49" data-name="Path 49" d="M22.913,0A22.913,22.913,0,1,1,0,22.913,22.913,22.913,0,0,1,22.913,0Z" transform="translate(901.659 578.636)" fill="#ffb727"/>
      <text id="Mazala" transform="translate(923.452 605.204)" fill="#292929" font-size="10" font-family="LeviReBrushed"><tspan x="-16.725" y="0">Mazala</tspan></text>
      <g id="Rectangle_53" data-name="Rectangle 53" transform="translate(1184.805 553.728)" fill="none" stroke="#fff" stroke-width="1">
        <rect width="18.641" height="8.544" stroke="none"/>
        <rect x="0.5" y="0.5" width="17.641" height="7.544" fill="none"/>
      </g>
      <rect id="Rectangle_54" data-name="Rectangle 54" width="1.553" height="3.884" transform="translate(1203.446 555.724)" fill="#fff"/>
      <rect id="Rectangle_55" data-name="Rectangle 55" width="14.758" height="7.767" transform="translate(1185.582 553.728)" fill="#fff"/>
      <g id="Group_137" data-name="Group 137" transform="translate(-58 -0.777)">
        <rect id="Rectangle_56" data-name="Rectangle 56" width="22.525" height="17.864" rx="2" transform="translate(829.424 548.344)" fill="#2c2727"/>
        <text id="_" data-name="&gt;" transform="translate(833.999 556)" fill="#fff" font-size="9" font-family="ArialMT, Arial"><tspan x="-2.628" y="0">&gt;</tspan></text>
        <line id="Line_23" data-name="Line 23" x2="9.359" transform="translate(840.231 561.605)" fill="none" stroke="#fff" stroke-width="1"/>
      </g>
      <g id="Group_138" data-name="Group 138" transform="translate(-57.77 -1.088)">
        <path id="Path_9" data-name="Path 9" d="M0,0H7.156l.459,1.1H22.508l-.048,17.145H0Z" transform="translate(861.522 548.27)" fill="#f8e880"/>
        <rect id="Rectangle_57" data-name="Rectangle 57" width="10.874" height="4.66" transform="translate(867.483 561.859)" fill="#4d939e"/>
      </g>
      <circle id="Ellipse_41" data-name="Ellipse 41" cx="6" cy="6" r="6" transform="translate(1264 592)" fill="#515050"/>
      <rect id="Rectangle_79" data-name="Rectangle 79" width="19" height="5" rx="2.5" transform="translate(1208 595)" fill="#515050"/>
      <rect id="Rectangle_79-2" data-name="Rectangle 79" width="20" height="5" rx="2.5" transform="translate(1235 595)" fill="#515050"/>
      <rect id="Rectangle_48" data-name="Rectangle 48" width="203.511" height="169.095" rx="20" transform="translate(750.549 247)" fill="#362f58"/>
      <g transform="matrix(1, 0, 0, 1, 409.08, 158.51)" filter="url(#Path_45)">
        <path id="Path_45-3" data-name="Path 45" d="M34.914,0A34.914,34.914,0,1,1,0,34.914,34.914,34.914,0,0,1,34.914,0Z" transform="translate(409.42 141.14)" fill="#ffb727"/>
      </g>
      <text id="Mazala-2" data-name="Mazala" transform="translate(849.936 337.974)" font-size="14" font-family="LeviReBrushed"><tspan x="-23.415" y="0">Mazala</tspan></text>
      <g id="Group_128" data-name="Group 128">
        <line id="Line_11" data-name="Line 11" y1="7.757" transform="translate(984.787 379.452)" fill="none" stroke="#fff" stroke-width="1"/>
        <line id="Line_12" data-name="Line 12" y1="13.93" transform="translate(989.449 373.279)" fill="none" stroke="#fff" stroke-width="1"/>
        <line id="Line_13" data-name="Line 13" y1="17.402" transform="translate(994.111 369.807)" fill="none" stroke="#fff" stroke-width="1"/>
        <line id="Line_13-2" data-name="Line 13" y1="7.757" transform="translate(998.773 379.452)" fill="none" stroke="#fff" stroke-width="1"/>
        <line id="Line_13-3" data-name="Line 13" y1="10.843" transform="translate(1002.436 376.365)" fill="none" stroke="#fff" stroke-width="1"/>
      </g>
      <path id="Rectangle_80" data-name="Rectangle 80" d="M10,0H192a0,0,0,0,1,0,0V362a0,0,0,0,1,0,0H0a0,0,0,0,1,0,0V10A10,10,0,0,1,10,0Z" transform="translate(542 182)" fill="#362f58"/>
      <rect id="Rectangle_81" data-name="Rectangle 81" width="172" height="22" transform="translate(550 225)" fill="#454061"/>
      <line id="Line_32" data-name="Line 32" x2="22" transform="translate(550.5 213.5)" fill="none" stroke="#fff" stroke-width="1"/>
      <line id="Line_33" data-name="Line 33" x2="22" transform="translate(550.5 209.5)" fill="none" stroke="#fff" stroke-width="1"/>
      <line id="Line_34" data-name="Line 34" x2="22" transform="translate(550.5 205.5)" fill="none" stroke="#fff" stroke-width="1"/>
      <text id="Search" transform="translate(564 238)" fill="#fff" font-size="6" font-family="SegoeUI, Segoe UI"><tspan x="0" y="0">Search</tspan></text>
      <g id="Ellipse_30-2" data-name="Ellipse 30" transform="translate(705.442 230.97)" fill="none" stroke="#fff" stroke-width="1">
        <circle cx="4.211" cy="4.211" r="4.211" stroke="none"/>
        <circle cx="4.211" cy="4.211" r="3.711" fill="none"/>
      </g>
      <line id="Line_21-2" data-name="Line 21" x1="5.147" y2="3.743" transform="translate(700.997 237.287)" fill="none" stroke="#fff" stroke-width="1"/>
      <text id="All_music" data-name="All music" transform="translate(571 279)" fill="#fff" font-size="12" font-family="SegoeUI, Segoe UI"><tspan x="0" y="0">All music</tspan></text>
      <text id="Recent_Plays" data-name="Recent Plays" transform="translate(571 315)" fill="#fff" font-size="12" font-family="SegoeUI, Segoe UI"><tspan x="0" y="0">Recent Plays</tspan></text>
      <text id="Now_Playing" data-name="Now Playing" transform="translate(571 351)" fill="#fff" font-size="12" font-family="SegoeUI, Segoe UI"><tspan x="0" y="0">Now Playing</tspan></text>
      <line id="Line_35" data-name="Line 35" x2="169" transform="translate(551.5 518.5)" fill="none" stroke="#454061" stroke-width="1"/>
      <g id="Ellipse_42" data-name="Ellipse 42" transform="translate(707 525)" fill="none" stroke="#707070" stroke-width="2">
        <circle cx="7.5" cy="7.5" r="7.5" stroke="none"/>
        <circle cx="7.5" cy="7.5" r="6.5" fill="none"/>
      </g>
      <g id="Group_126" data-name="Group 126">
        <g id="Polygon_2" data-name="Polygon 2" transform="translate(1176.635 443.616) rotate(90)" fill="none">
          <path d="M8.192,0l8.192,14.26H0Z" stroke="none"/>
          <path d="M 8.191770553588867 2.007535934448242 L 1.727733612060547 13.25974369049072 L 14.65580749511719 13.25974369049072 L 8.191770553588867 2.007535934448242 M 8.191770553588867 2.86102294921875e-06 L 16.38354110717773 14.25974369049072 L 0 14.25974369049072 L 8.191770553588867 2.86102294921875e-06 Z" stroke="none" fill="#fff"/>
        </g>
        <line id="Line_36" data-name="Line 36" x2="0.303" y2="16.384" transform="translate(1179.669 443.616)" fill="none" stroke="#fff" stroke-width="1"/>
        <g id="Polygon_2-2" data-name="Polygon 2" transform="translate(1070.108 460) rotate(-90)" fill="none">
          <path d="M8.505,0l8.505,14.135H0Z" stroke="none"/>
          <path d="M 8.505430221557617 1.939544677734375 L 1.768817901611328 13.13493633270264 L 15.24204254150391 13.13493633270264 L 8.505430221557617 1.939544677734375 M 8.505430221557617 -3.814697265625e-06 L 17.01086044311523 14.13493633270264 L 0 14.13493633270264 L 8.505430221557617 -3.814697265625e-06 Z" stroke="none" fill="#fff"/>
        </g>
        <line id="Line_36-2" data-name="Line 36" x2="0.315" y2="17.011" transform="translate(1066.958 460) rotate(180)" fill="none" stroke="#fff" stroke-width="1"/>
        <line id="Line_14" data-name="Line 14" y2="18.748" transform="translate(1118.569 440.945)" fill="none" stroke="#fff" stroke-width="2"/>
        <line id="Line_14-2" data-name="Line 14" y2="18.748" transform="translate(1126.068 440.945)" fill="none" stroke="#fff" stroke-width="2"/>
        <g id="Ellipse_43" data-name="Ellipse 43" transform="translate(1106 434)" fill="none" stroke="#fff" stroke-width="2">
          <circle cx="16.5" cy="16.5" r="16.5" stroke="none"/>
          <circle cx="16.5" cy="16.5" r="15.5" fill="none"/>
        </g>
      </g>
      <text id="X" transform="translate(1292 193)" fill="#fff" font-size="9" font-family="SegoeUI, Segoe UI"><tspan x="0" y="0">X</tspan></text>
      <g id="Rectangle_82" data-name="Rectangle 82" transform="translate(1272 185)" fill="none" stroke="#fff" stroke-width="1">
        <rect width="6" height="6" stroke="none"/>
        <rect x="0.5" y="0.5" width="5" height="5" fill="none"/>
      </g>
      <g id="Rectangle_82-2" data-name="Rectangle 82" transform="translate(1270 187)" fill="#454061" stroke="#fff" stroke-width="1">
        <rect width="6" height="6" stroke="none"/>
        <rect x="0.5" y="0.5" width="5" height="5" fill="none"/>
      </g>
      <line id="Line_37" data-name="Line 37" x2="11" transform="translate(1243.5 189)" fill="none" stroke="#fff" stroke-width="1"/>
      <line id="Line_38" data-name="Line 38" x2="169" transform="translate(551.5 374)" fill="none" stroke="#454061" stroke-width="1"/>
    </g>
    <g id="Group_134" data-name="Group 134" transform="translate(263.043 -98.257)">
      <rect id="Rectangle_77" data-name="Rectangle 77" width="2.555" height="14.771" transform="translate(207.421 586.084)" fill="#242323"/>
      <rect id="Rectangle_77-2" data-name="Rectangle 77" width="2.555" height="14.771" transform="translate(207.421 602.41)" fill="#242323"/>
      <g transform="matrix(1, 0, 0, 1, 205.44, 272.77)" filter="url(#Rectangle_34)">
        <rect id="Rectangle_34-2" data-name="Rectangle 34" width="134.677" height="251.486" rx="15" transform="translate(4 282.98)" fill="#e8e8e8"/>
      </g>
      <rect id="Rectangle_35" data-name="Rectangle 35" width="127.056" height="231.754" rx="10" transform="translate(213.207 566.669)" fill="url(#linear-gradient-2)"/>
      <ellipse id="Ellipse_24-2" data-name="Ellipse 24" cx="1.701" cy="1.701" rx="1.701" ry="1.701" transform="translate(229.341 559.374)" fill="#5a5656"/>
      <ellipse id="Ellipse_24-3" data-name="Ellipse 24" cx="2.748" cy="2.748" rx="2.748" ry="2.748" transform="translate(234.052 558.06)" fill="#5a5656"/>
      <ellipse id="Ellipse_24-4" data-name="Ellipse 24" cx="1.832" cy="1.832" rx="1.832" ry="1.832" transform="translate(321.126 559.213)" fill="#5a5656"/>
      <ellipse id="Ellipse_24-5" data-name="Ellipse 24" cx="2.748" cy="2.748" rx="2.748" ry="2.748" transform="translate(314.319 558.024)" fill="#5a5656"/>
      <g id="Rectangle_39" data-name="Rectangle 39" transform="translate(273.439 785.868)" fill="rgba(255,255,255,0)" stroke="#e3e3e3" stroke-width="1">
        <rect width="7.59" height="7.59" rx="3.795" stroke="none"/>
        <rect x="0.5" y="0.5" width="6.59" height="6.59" rx="3.295" fill="none"/>
      </g>
      <path id="Path_42" data-name="Path 42" d="M8.109,0h99.465a8.109,8.109,0,0,1,8.109,8.109V87.945a8.109,8.109,0,0,1-8.109,8.109H8.109A8.109,8.109,0,0,1,0,87.945V8.109A8.109,8.109,0,0,1,8.109,0Z" transform="translate(219.263 590.359)" fill="#362f58"/>
      <line id="Line_1" data-name="Line 1" x1="8.899" transform="translate(227.245 787.392)" fill="none" stroke="#e3e3e3" stroke-width="1"/>
      <line id="Line_1-2" data-name="Line 1" x1="8.899" transform="translate(227.245 789.663)" fill="none" stroke="#e3e3e3" stroke-width="1"/>
      <line id="Line_1-3" data-name="Line 1" x1="8.899" transform="translate(227.245 791.935)" fill="none" stroke="#e3e3e3" stroke-width="1"/>
      <text id="Mazala-Firm-2" data-name="Mazala-Firm" transform="translate(254 701)" fill="#fff" font-size="9" font-family="Candara"><tspan x="0" y="0">Mazala-Firm</tspan></text>
      <text id="Inefable_KOUMBA" data-name="Inefable KOUMBA" transform="translate(261 708)" fill="#e5e1e1" font-size="4" font-family="Candara"><tspan x="0" y="0">Inefable KOUMBA</tspan></text>
      <path id="Rectangle_42" data-name="Rectangle 42" d="M8.035,0H117.963A8.035,8.035,0,0,1,126,8.035v0a0,0,0,0,1,0,0H0a0,0,0,0,1,0,0v0A8.035,8.035,0,0,1,8.035,0Z" transform="translate(213.736 566.669)" fill="#383648"/>
      <rect id="Rectangle_43" data-name="Rectangle 43" width="2.617" height="3.926" transform="translate(329.449 569.421)" fill="#fff"/>
      <rect id="Rectangle_44" data-name="Rectangle 44" width="1.047" height="1.57" transform="translate(330.234 568.897)" fill="#fff"/>
      <text id="_67_" data-name="67%" transform="translate(322.001 573)" fill="#fff" font-size="3" font-family="SegoeUI, Segoe UI"><tspan x="0" y="0">67%</tspan></text>
      <path id="Path_1" data-name="Path 1" d="M0,0" transform="translate(336.516 574.811)" fill="none" stroke="#707070" stroke-width="5"/>
      <g id="Group_131" data-name="Group 131" transform="translate(0.002 2.094)">
        <ellipse id="Ellipse_26-4" data-name="Ellipse 26" cx="1.047" cy="1.047" rx="1.047" ry="1.047" transform="translate(332.325 575.702)" fill="#fff"/>
        <ellipse id="Ellipse_26-5" data-name="Ellipse 26" cx="1.047" cy="1.047" rx="1.047" ry="1.047" transform="translate(332.325 578.581)" fill="#fff"/>
        <ellipse id="Ellipse_26-6" data-name="Ellipse 26" cx="1.047" cy="1.047" rx="1.047" ry="1.047" transform="translate(332.325 581.46)" fill="#fff"/>
      </g>
      <line id="Line_5" data-name="Line 5" y2="1.156" transform="translate(315.313 571.788)" fill="none" stroke="#fff" stroke-width="1"/>
      <line id="Line_6" data-name="Line 6" y2="2.312" transform="translate(316.813 570.632)" fill="none" stroke="#fff" stroke-width="1"/>
      <line id="Line_7" data-name="Line 7" y2="3.179" transform="translate(318.314 569.764)" fill="none" stroke="#fff" stroke-width="1"/>
      <line id="Line_8" data-name="Line 8" y2="4.046" transform="translate(319.815 568.897)" fill="none" stroke="#fff" stroke-width="1"/>
      <text id="_4:56_PM" data-name="4:56 PM" transform="translate(219 572)" fill="#fff" font-size="3" font-family="SegoeUI-Semibold, Segoe UI" font-weight="600"><tspan x="0" y="0">4:56 PM</tspan></text>
      <rect id="Rectangle_45" data-name="Rectangle 45" width="21.723" height="4.188" rx="2.094" transform="translate(266.373 558.952)" fill="#515050"/>
      <rect id="Rectangle_46-3" data-name="Rectangle 46" width="101.811" height="1.832" rx="0.916" transform="translate(226.329 746.871)" fill="#fff"/>
      <rect id="Rectangle_46-4" data-name="Rectangle 46" width="24.992" height="1.832" rx="0.916" transform="translate(226.432 746.9)" fill="#ffb727"/>
      <g id="Group_130" data-name="Group 130" transform="translate(-0.204 2.77)">
        <line id="Line_9-2" data-name="Line 9" x2="6.543" transform="translate(317.933 733.78)" fill="none" stroke="#fff" stroke-width="1"/>
        <line id="Line_10-2" data-name="Line 10" y2="7.226" transform="translate(321.204 730.312)" fill="none" stroke="#fff" stroke-width="1"/>
      </g>
      <path id="Path_2" data-name="Path 2" d="M1.832,0,6.256,1.07c1.012,0,8.824.271,8.824,1.283L20.995,3.4c.681,1.1-6.111.788-7.123.788H1.832A1.832,1.832,0,0,1,0,2.356V1.832A1.832,1.832,0,0,1,1.832,0Z" transform="translate(266.373 558.952)" fill="#484848"/>
      <text id="A" transform="translate(317 765)" fill="#fff" font-size="7" font-family="Candara"><tspan x="0" y="0">A</tspan></text>
      <text id="_3:15-2" data-name="3:15" transform="translate(321 754)" fill="#fff" font-size="4" font-family="Candara"><tspan x="0" y="0">3:15</tspan></text>
      <text id="_0:51-2" data-name="0:51" transform="translate(226 754)" fill="#fff" font-size="4" font-family="Candara"><tspan x="0" y="0">0:51</tspan></text>
      <ellipse id="Ellipse_27" data-name="Ellipse 27" cx="3.926" cy="3.533" rx="3.926" ry="3.533" transform="translate(232.218 759.018)" fill="#fff"/>
      <ellipse id="Ellipse_28-2" data-name="Ellipse 28" cx="4.58" cy="4.188" rx="4.58" ry="4.188" transform="translate(272.654 731.214)" fill="#fff"/>
      <rect id="Rectangle_47" data-name="Rectangle 47" width="1.947" height="10.37" transform="translate(207.492 626.006)" fill="#242323"/>
      <text id="_2" data-name="&lt;" transform="translate(317 793)" fill="#e3e3e3" font-size="13" font-family="Consolas"><tspan x="0" y="0">&lt;</tspan></text>
      <g id="Group_132" data-name="Group 132" transform="translate(-0.105 2.094)">
        <line id="Line_16-2" data-name="Line 16" y2="7.328" transform="translate(319.55 576.226)" fill="none" stroke="#fff" stroke-width="1"/>
        <line id="Line_17-2" data-name="Line 17" y2="3.664" transform="translate(317.563 579.89)" fill="none" stroke="#fff" stroke-width="1"/>
        <line id="Line_18-3" data-name="Line 18" y2="5.758" transform="translate(321.335 577.796)" fill="none" stroke="#fff" stroke-width="1"/>
        <line id="Line_18-4" data-name="Line 18" y2="3.141" transform="translate(325.106 580.413)" fill="none" stroke="#fff" stroke-width="1"/>
        <line id="Line_20-2" data-name="Line 20" y2="2.356" transform="translate(323.12 581.198)" fill="none" stroke="#fff" stroke-width="1"/>
      </g>
      <ellipse id="Ellipse_29-3" data-name="Ellipse 29" cx="3.402" cy="3.402" rx="3.402" ry="3.402" transform="translate(287.312 578.581)" fill="#fff"/>
      <ellipse id="Ellipse_29-4" data-name="Ellipse 29" cx="3.402" cy="3.402" rx="3.402" ry="3.402" transform="translate(303.538 578.843)" fill="#ffb727"/>
      <ellipse id="Ellipse_25-2" data-name="Ellipse 25" cx="2.297" cy="2.312" rx="2.297" ry="2.312" transform="translate(248.773 745.486)" fill="#ffb727"/>
      <g transform="matrix(1, 0, 0, 1, 205.44, 272.77)" filter="url(#Ellipse_33)">
        <circle id="Ellipse_33-2" data-name="Ellipse 33" cx="29.192" cy="29.192" r="29.192" transform="translate(41.83 336.4) rotate(-1)" fill="#ffb727"/>
      </g>
      <text id="Mazala-3" data-name="Mazala" transform="translate(275.998 639.368) rotate(-1)" font-size="8" font-family="LeviReBrushed"><tspan x="-13.38" y="0">Mazala</tspan></text>
      <g id="Group_133" data-name="Group 133" transform="translate(0 1.843)">
        <circle id="Ellipse_40" data-name="Ellipse 40" cx="3.4" cy="3.4" r="3.4" transform="translate(219 577)" fill="#74719b"/>
        <text id="_3" data-name="&lt;" transform="translate(221.049 581.256)" fill="#fff" font-size="4" font-family="Consolas"><tspan x="0" y="0">&lt;</tspan></text>
      </g>
      <rect id="Rectangle_78" data-name="Rectangle 78" width="3.332" height="19.436" transform="translate(343.248 631.174)" fill="#242323"/>
      <g id="Group_127" data-name="Group 127" transform="translate(-811.959 321.985)">
        <g id="Polygon_2-3" data-name="Polygon 2" transform="translate(1110.417 437.827) rotate(90)" fill="none">
          <path d="M3.26,0,6.52,5.675H0Z" stroke="none"/>
          <path d="M 3.260091781616211 2.007532835006714 L 1.72773265838623 4.674976825714111 L 4.792450904846191 4.674976825714111 L 3.260091781616211 2.007532835006714 M 3.260091781616211 -2.86102294921875e-06 L 6.520181655883789 5.674976825714111 L 1.9073486328125e-06 5.674976825714111 L 3.260091781616211 -2.86102294921875e-06 Z" stroke="none" fill="#fff"/>
        </g>
        <line id="Line_36-3" data-name="Line 36" x2="0.121" y2="6.52" transform="translate(1111.624 437.827)" fill="none" stroke="#fff" stroke-width="1"/>
        <g id="Polygon_2-4" data-name="Polygon 2" transform="translate(1068.022 444.347) rotate(-90)" fill="none">
          <path d="M3.385,0,6.77,5.625H0Z" stroke="none"/>
          <path d="M 3.384919404983521 1.939548015594482 L 1.76881742477417 4.625300407409668 L 5.001021385192871 4.625300407409668 L 3.384919404983521 1.939548015594482 M 3.384919404983521 4.76837158203125e-07 L 6.769839286804199 5.625300884246826 L -4.76837158203125e-07 5.625300884246826 L 3.384919404983521 4.76837158203125e-07 Z" stroke="none" fill="#fff"/>
        </g>
        <line id="Line_36-4" data-name="Line 36" x2="0.125" y2="6.77" transform="translate(1066.768 444.347) rotate(180)" fill="none" stroke="#fff" stroke-width="1"/>
        <line id="Line_14-3" data-name="Line 14" y2="7.461" transform="translate(1087.308 436.764)" fill="none" stroke="#fff" stroke-width="1"/>
        <line id="Line_14-4" data-name="Line 14" y2="7.461" transform="translate(1090.293 436.764)" fill="none" stroke="#fff" stroke-width="1"/>
        <g id="Ellipse_43-2" data-name="Ellipse 43" transform="translate(1082.306 434)" fill="none" stroke="#fff" stroke-width="1">
          <circle cx="6.567" cy="6.567" r="6.567" stroke="none"/>
          <circle cx="6.567" cy="6.567" r="6.067" fill="none"/>
        </g>
      </g>
      <g id="Group_129" data-name="Group 129" transform="translate(-757.086 360.052)">
        <line id="Line_11-2" data-name="Line 11" y1="4.658" transform="translate(984.787 375.598)" fill="none" stroke="#fff" stroke-width="1"/>
        <line id="Line_12-2" data-name="Line 12" y1="8.364" transform="translate(987.586 371.892)" fill="none" stroke="#fff" stroke-width="1"/>
        <line id="Line_13-4" data-name="Line 13" y1="10.448" transform="translate(990.386 369.807)" fill="none" stroke="#fff" stroke-width="1"/>
        <line id="Line_13-5" data-name="Line 13" y1="4.658" transform="translate(993.185 375.598)" fill="none" stroke="#fff" stroke-width="1"/>
        <line id="Line_13-6" data-name="Line 13" y1="6.511" transform="translate(995.384 373.745)" fill="none" stroke="#fff" stroke-width="1"/>
      </g>
    </g>
    <g id="Group_136" data-name="Group 136" transform="translate(-328 -261.136)">
      <g transform="matrix(1, 0, 0, 1, 796.48, 435.65)" filter="url(#Path_41)">
        <path id="Path_41-2" data-name="Path 41" d="M7.324,0h389.97c4.045,0,7.324,4.011,7.324,8.959V264.817c0,4.948-3.279,8.959-7.324,8.959H7.324c-4.045,0-7.324-4.011-7.324-8.959V8.959C0,4.011,3.279,0,7.324,0Z" transform="translate(560.55 260.69)" fill="#e8e8e8"/>
      </g>
      <path id="Path_48" data-name="Path 48" d="M4.9,0H384.055a4.9,4.9,0,0,1,4.9,4.9v236.77a4.9,4.9,0,0,1-4.9,4.9H4.9a4.9,4.9,0,0,1-4.9-4.9V4.9A4.9,4.9,0,0,1,4.9,0Z" transform="translate(1364.865 708.355)" fill="url(#linear-gradient-3)"/>
      <rect id="Rectangle_24" data-name="Rectangle 24" width="2.983" height="18.138" transform="translate(1417.63 694.353) rotate(90)" fill="#fff"/>
      <g id="Group_23" data-name="Group 23" transform="translate(1514.464 700.238)">
        <ellipse id="Ellipse_24-6" data-name="Ellipse 24" cx="1.63" cy="1.63" rx="1.63" ry="1.63" transform="translate(0 1.293)" fill="#5a5656"/>
        <ellipse id="Ellipse_24-7" data-name="Ellipse 24" cx="2.633" cy="2.633" rx="2.633" ry="2.633" transform="translate(4.514 0.034)" fill="#5a5656"/>
        <ellipse id="Ellipse_24-8" data-name="Ellipse 24" cx="1.756" cy="1.756" rx="1.756" ry="1.756" transform="translate(87.951 1.14)" fill="#5a5656"/>
        <ellipse id="Ellipse_24-9" data-name="Ellipse 24" cx="2.633" cy="2.633" rx="2.633" ry="2.633" transform="translate(81.429 0)" fill="#5a5656"/>
        <rect id="Rectangle_45-2" data-name="Rectangle 45" width="20.816" height="4.013" rx="2.006" transform="translate(35.485 0.889)" fill="#515050"/>
        <path id="Path_2-2" data-name="Path 2" d="M1.756,0,5.995,1.025c.97,0,8.455.26,8.455,1.229l5.668,1c.653,1.051-5.856.755-6.826.755H1.756A1.756,1.756,0,0,1,0,2.257v-.5A1.756,1.756,0,0,1,1.756,0Z" transform="translate(35.485 0.889)" fill="#484848"/>
      </g>
      <text id="_3:15-3" data-name="3:15" transform="translate(1723.87 873.763)" fill="#fff" font-size="6" font-family="Candara"><tspan x="0" y="0">3:15</tspan></text>
      <text id="_0:51-3" data-name="0:51" transform="translate(1538.119 873.213)" fill="#fff" font-size="6" font-family="Candara"><tspan x="0" y="0">0:51</tspan></text>
      <rect id="Rectangle_46-5" data-name="Rectangle 46" width="194.751" height="1.73" rx="0.865" transform="translate(1538.119 864.482)" fill="#fff"/>
      <rect id="Rectangle_46-6" data-name="Rectangle 46" width="54.617" height="1.73" rx="0.865" transform="translate(1538.119 864.482)" fill="#ffb727"/>
      <g id="Group_12" data-name="Group 12" transform="translate(1720.354 827.904)">
        <line id="Line_9-3" data-name="Line 9" x2="12.516" transform="translate(0 6.635)" fill="none" stroke="#fff" stroke-width="2"/>
        <line id="Line_10-3" data-name="Line 10" y2="13.822" transform="translate(6.258 0)" fill="none" stroke="#fff" stroke-width="2"/>
      </g>
      <g id="Group_125" data-name="Group 125" transform="translate(12 25)">
        <line id="Line_11-3" data-name="Line 11" y1="7.757" transform="translate(1527.295 810.068)" fill="none" stroke="#fff" stroke-width="2"/>
        <line id="Line_12-3" data-name="Line 12" y1="13.93" transform="translate(1531.957 803.896)" fill="none" stroke="#fff" stroke-width="2"/>
        <line id="Line_13-7" data-name="Line 13" y1="17.402" transform="translate(1536.619 800.423)" fill="none" stroke="#fff" stroke-width="2"/>
        <line id="Line_13-8" data-name="Line 13" y1="7.757" transform="translate(1541.281 810.068)" fill="none" stroke="#fff" stroke-width="2"/>
        <line id="Line_13-9" data-name="Line 13" y1="10.843" transform="translate(1544.943 806.982)" fill="none" stroke="#fff" stroke-width="2"/>
      </g>
      <ellipse id="Ellipse_28-3" data-name="Ellipse 28" cx="8.761" cy="8.01" rx="8.761" ry="8.01" transform="translate(1631.521 826.804)" fill="#fff"/>
      <g id="Group_29" data-name="Group 29" transform="translate(1538.119 896.117)">
        <g id="Group_13" data-name="Group 13" transform="translate(131.67 3.586)">
          <path id="Polygon_1" data-name="Polygon 1" d="M6.258,0l6.258,8.675H0Z" transform="translate(12.516 0) rotate(90)" fill="#fff"/>
          <path id="Polygon_1-2" data-name="Polygon 1" d="M6.258,0l6.258,8.994H0Z" transform="translate(19.525 0) rotate(90)" fill="#fff"/>
        </g>
        <g id="Group_16" data-name="Group 16" transform="translate(93.371 2.334)">
          <line id="Line_14-5" data-name="Line 14" y2="15.019" fill="none" stroke="#fff" stroke-width="2"/>
          <line id="Line_14-6" data-name="Line 14" y2="15.019" transform="translate(6.008)" fill="none" stroke="#fff" stroke-width="2"/>
        </g>
        <g id="Group_15" data-name="Group 15" transform="translate(176.186 1.854)">
          <line id="Line_15" data-name="Line 15" x2="14.018" transform="translate(0 11.169)" fill="none" stroke="#fff" stroke-width="1"/>
          <g id="Group_14" data-name="Group 14" transform="translate(1.293 0)">
            <text id="_4" data-name="&gt;" transform="translate(10.01 13.5)" fill="#fff" font-size="8" font-family="SegoeUI, Segoe UI"><tspan x="0" y="0">&gt;</tspan></text>
            <text id="A-2" data-name="A" transform="translate(0 8)" fill="#fff" font-size="9" font-family="Consolas"><tspan x="0" y="0">A</tspan></text>
          </g>
        </g>
        <ellipse id="Ellipse_27-2" data-name="Ellipse 27" cx="7.51" cy="6.759" rx="7.51" ry="6.759" transform="translate(0 2.585)" fill="#fff"/>
        <g id="Group_18" data-name="Group 18" transform="translate(61.079 16.102) rotate(180)">
          <path id="Polygon_1-3" data-name="Polygon 1" d="M6.258,0l6.258,9.016H0Z" transform="translate(12.516 0) rotate(90)" fill="#fff"/>
          <path id="Polygon_1-4" data-name="Polygon 1" d="M6.258,0l6.258,9.225H0Z" transform="translate(19.525 0) rotate(90)" fill="#fff"/>
        </g>
      </g>
      <path id="Path_43" data-name="Path 43" d="M7.716,0H135.331a7.716,7.716,0,0,1,7.716,7.716V111.058a7.716,7.716,0,0,1-7.716,7.716H7.716A7.716,7.716,0,0,1,0,111.058V7.716A7.716,7.716,0,0,1,7.716,0Z" transform="translate(1381.283 770.804)" fill="#362f58"/>
      <text id="Mazala-Firm-3" data-name="Mazala-Firm" transform="translate(1535.934 782.216)" fill="#fff" font-size="13" font-family="Candara"><tspan x="0" y="0">Mazala-Firm</tspan></text>
      <text id="Mazala_Founders-2" data-name="Mazala Founders" transform="translate(1538.119 800.215)" fill="#e5e1e1" font-size="7" font-family="Candara"><tspan x="0" y="0">Mazala Founders</tspan></text>
      <g id="Group_36" data-name="Group 36" transform="translate(1665.947 729.356)">
        <g id="Group_34" data-name="Group 34" transform="translate(63.813 0)">
          <ellipse id="Ellipse_26-7" data-name="Ellipse 26" cx="1.314" cy="1.314" rx="1.314" ry="1.314" fill="#fff"/>
          <ellipse id="Ellipse_26-8" data-name="Ellipse 26" cx="1.314" cy="1.314" rx="1.314" ry="1.314" transform="translate(0 3.613)" fill="#fff"/>
          <ellipse id="Ellipse_26-9" data-name="Ellipse 26" cx="1.314" cy="1.314" rx="1.314" ry="1.314" transform="translate(0 7.225)" fill="#fff"/>
        </g>
        <g id="Group_19" data-name="Group 19" transform="translate(43.377 0)">
          <line id="Line_16-3" data-name="Line 16" y2="9.196" transform="translate(2.315)" fill="none" stroke="#fff" stroke-width="1"/>
          <path id="Path_44" data-name="Path 44" d="M0,0V4.6" transform="translate(0 4.598)" fill="#d6bc14" stroke="#fff" stroke-width="1"/>
          <line id="Line_18-5" data-name="Line 18" y2="7.225" transform="translate(4.63 1.97)" fill="none" stroke="#fff" stroke-width="1"/>
          <line id="Line_18-6" data-name="Line 18" y2="3.941" transform="translate(11.577 5.255)" fill="none" stroke="#fff" stroke-width="1"/>
          <line id="Line_19-2" data-name="Line 19" y2="6.24" transform="translate(6.946 2.956)" fill="none" stroke="#fff" stroke-width="1"/>
          <line id="Line_20-3" data-name="Line 20" y2="2.956" transform="translate(9.261 6.24)" fill="none" stroke="#fff" stroke-width="1"/>
        </g>
        <ellipse id="Ellipse_29-5" data-name="Ellipse 29" cx="4.269" cy="4.269" rx="4.269" ry="4.269" transform="translate(0 0.657)" fill="#fff"/>
        <ellipse id="Ellipse_29-6" data-name="Ellipse 29" cx="4.269" cy="4.269" rx="4.269" ry="4.269" transform="translate(23.463 0.657)" fill="#ffb727"/>
      </g>
      <g id="Group_39" data-name="Group 39" transform="translate(1513.529 940.014)">
        <g id="Rectangle_39-2" data-name="Rectangle 39" transform="translate(44.265 1.446)" fill="rgba(255,255,255,0)" stroke="#e3e3e3" stroke-width="1">
          <rect width="6.27" height="6.27" rx="3.135" stroke="none"/>
          <rect x="0.5" y="0.5" width="5.27" height="5.27" rx="2.635" fill="none"/>
        </g>
        <g id="Group_37" data-name="Group 37" transform="translate(0 1.637)">
          <line id="Line_1-4" data-name="Line 1" x1="8.527" fill="none" stroke="#e3e3e3" stroke-width="1"/>
          <line id="Line_1-5" data-name="Line 1" x1="8.527" transform="translate(0 3.039)" fill="none" stroke="#e3e3e3" stroke-width="1"/>
          <line id="Line_1-6" data-name="Line 1" x1="8.527" transform="translate(0 6.079)" fill="none" stroke="#e3e3e3" stroke-width="1"/>
        </g>
        <text id="_5" data-name="&lt;" transform="translate(87.471 7.986)" fill="#e3e3e3" font-size="10" font-family="Consolas"><tspan x="0" y="0">&lt;</tspan></text>
      </g>
      <g id="Group_58" data-name="Group 58" transform="translate(1417.787 793.215)">
        <g transform="matrix(1, 0, 0, 1, -621.3, -357.57)" filter="url(#Path_45-2)">
          <path id="Path_45-4" data-name="Path 45" d="M34.914,0A34.914,34.914,0,1,1,0,34.914,34.914,34.914,0,0,1,34.914,0Z" transform="translate(621.3 357.57)" fill="#ffb727"/>
        </g>
        <g id="Group_57" data-name="Group 57" transform="translate(7.436 26.318)">
          <text id="Mazala-4" data-name="Mazala" transform="translate(24 12)" font-size="14" font-family="LeviReBrushed"><tspan x="-23.415" y="0">Mazala</tspan></text>
        </g>
      </g>
      <g id="Group_60" data-name="Group 60" transform="translate(1381.137 727.986)">
        <circle id="Ellipse_34" data-name="Ellipse 34" cx="6.365" cy="6.365" r="6.365" transform="translate(0 0)" fill="#ffb727"/>
        <g id="Group_47" data-name="Group 47" transform="translate(3.805 2.242)">
          <text id="_6" data-name="&lt;" transform="translate(2 7)" fill="#fff" font-size="8" font-family="ArialMT, Arial"><tspan x="-2.336" y="0">&lt;</tspan></text>
        </g>
      </g>
      <path id="Rectangle_74" data-name="Rectangle 74" d="M5,0H383.955a5,5,0,0,1,5,5v7.586a0,0,0,0,1,0,0H0a0,0,0,0,1,0,0V5A5,5,0,0,1,5,0Z" transform="translate(1364.865 708.355)" fill="#383646"/>
      <g id="Group_81" data-name="Group 81" transform="translate(1377.093 709.854)">
        <g id="Group_11" data-name="Group 11" transform="translate(366.542 1.215)">
          <rect id="Rectangle_43-2" data-name="Rectangle 43" width="4.223" height="5.344" transform="translate(0 0.713)" fill="#fff"/>
          <rect id="Rectangle_44-2" data-name="Rectangle 44" width="1.425" height="2.138" transform="translate(1.399 0)" fill="#fff"/>
        </g>
        <text id="_67_2" data-name="67%" transform="translate(354.709 6.272)" fill="#fff" font-size="5" font-family="SegoeUI, Segoe UI"><tspan x="0" y="0">67</tspan><tspan y="0" font-size="4">%</tspan></text>
        <g id="Group_8" data-name="Group 8" transform="translate(24.891 0.82)">
          <line id="Line_5-2" data-name="Line 5" y2="1.89" transform="translate(0 4.725)" fill="none" stroke="#fff" stroke-width="1"/>
          <path id="Path_3" data-name="Path 3" d="M0,0V3.78" transform="translate(1.972 2.835)" fill="none" stroke="#fff" stroke-width="1"/>
          <line id="Line_7-2" data-name="Line 7" y2="5.197" transform="translate(3.944 1.417)" fill="none" stroke="#fff" stroke-width="1"/>
          <line id="Line_8-2" data-name="Line 8" y2="6.615" transform="translate(5.916 0)" fill="none" stroke="#fff" stroke-width="1"/>
        </g>
        <text id="_4:56" data-name="4:56" transform="translate(176.907 7.146)" fill="#fff" font-size="6" font-family="SegoeUI, Segoe UI"><tspan x="0" y="0">4:56</tspan></text>
        <text id="Mazala_4G" data-name="Mazala 4G" transform="translate(0 7.434)" fill="#fff" font-size="4" font-family="Consolas"><tspan x="0" y="0">Mazala 4G</tspan></text>
      </g>
      <ellipse id="Ellipse_25-3" data-name="Ellipse 25" cx="4.506" cy="4.423" rx="4.506" ry="4.423" transform="translate(1589.944 860.616)" fill="#ffb727"/>
      <rect id="Rectangle_76" data-name="Rectangle 76" width="3.539" height="22.004" transform="translate(1760.652 748.212)" fill="#fff"/>
      <rect id="Rectangle_76-2" data-name="Rectangle 76" width="3.539" height="22.004" transform="translate(1760.652 779.525)" fill="#fff"/>
    </g>
    <rect id="Rectangle_83" data-name="Rectangle 83" width="165" height="23" rx="11.5" transform="translate(613 414)" fill="#2c274c"/>
    <rect id="Rectangle_83-2" data-name="Rectangle 83" width="165" height="23" rx="11.5" transform="translate(613 446)" fill="#2c274c"/>
    <rect id="Rectangle_83-3" data-name="Rectangle 83" width="165" height="23" rx="11.5" transform="translate(613 478)" fill="#2c274c"/>
  </g>
</svg>
