<svg id="_012-daily_health_app" data-name="012-daily health app" xmlns="http://www.w3.org/2000/svg" xmlns:xlink="http://www.w3.org/1999/xlink" width="335.592" height="335.592" viewBox="0 0 335.592 335.592">
  <defs>
    <linearGradient id="linear-gradient" x1="0.074" y1="0.074" x2="0.74" y2="0.74" gradientUnits="objectBoundingBox">
      <stop offset="0" stop-color="#dc4955"/>
      <stop offset="1" stop-color="#c4237c"/>
    </linearGradient>
    <linearGradient id="linear-gradient-2" x1="0.935" y1="0.836" x2="0.601" y2="0.475" gradientUnits="objectBoundingBox">
      <stop offset="0" stop-color="#8a1958" stop-opacity="0"/>
      <stop offset="1" stop-color="#8a1958"/>
    </linearGradient>
    <linearGradient id="linear-gradient-3" x1="0.5" y1="0.196" x2="0.5" y2="1.169" xlink:href="#linear-gradient-2"/>
    <linearGradient id="linear-gradient-4" x1="0.195" y1="0.008" x2="0.757" y2="0.684" gradientUnits="objectBoundingBox">
      <stop offset="0" stop-color="#eef4ff"/>
      <stop offset="1" stop-color="#cfe7fd"/>
    </linearGradient>
    <linearGradient id="linear-gradient-5" x1="0.5" y1="0.12" x2="0.5" y2="0.981" gradientUnits="objectBoundingBox">
      <stop offset="0" stop-color="#8aaadc" stop-opacity="0"/>
      <stop offset="1" stop-color="#8aaadc"/>
    </linearGradient>
    <linearGradient id="linear-gradient-6" x1="0.576" y1="0.473" x2="0.958" y2="0.147" xlink:href="#linear-gradient-5"/>
    <linearGradient id="linear-gradient-7" x1="0.533" y1="0.516" x2="0.408" y2="-0.05" xlink:href="#linear-gradient-5"/>
    <linearGradient id="linear-gradient-8" x1="0.5" y1="0.841" x2="0.5" y2="0.037" xlink:href="#linear-gradient-5"/>
    <linearGradient id="linear-gradient-9" x1="0.5" y1="0.351" x2="0.5" y2="0.827" gradientUnits="objectBoundingBox">
      <stop offset="0" stop-color="#f7e07d"/>
      <stop offset="1" stop-color="#e69642"/>
    </linearGradient>
    <linearGradient id="linear-gradient-10" x1="0.5" y1="0.884" x2="0.5" y2="-0.529" gradientUnits="objectBoundingBox">
      <stop offset="0" stop-color="#d52c1c" stop-opacity="0"/>
      <stop offset="0.28" stop-color="#d12c1e" stop-opacity="0.278"/>
      <stop offset="0.573" stop-color="#c42c23" stop-opacity="0.573"/>
      <stop offset="0.872" stop-color="#af2b2c" stop-opacity="0.871"/>
      <stop offset="1" stop-color="#a42b31"/>
    </linearGradient>
  </defs>
  <path id="Tracé_2015" data-name="Tracé 2015" d="M265.453,0H70.139A70.139,70.139,0,0,0,0,70.139V265.453a70.139,70.139,0,0,0,70.139,70.139H265.453a70.139,70.139,0,0,0,70.139-70.139V70.139A70.139,70.139,0,0,0,265.453,0Z" fill="url(#linear-gradient)"/>
  <path id="Tracé_2016" data-name="Tracé 2016" d="M359.905,300.491V187.377l-62.943-62.943a65.457,65.457,0,0,0-45.9-21.894c-1.129-.055-2.273-.083-3.4-.083a67.958,67.958,0,0,0-47.829,19.525,69.263,69.263,0,0,0-6.062,6.784c-.547-.574-5.739-5.783-6.759-6.784a67.956,67.956,0,0,0-47.828-19.526c-1.127,0-2.271.028-3.4.083a65.713,65.713,0,0,0-48.713,25.206,74.319,74.319,0,0,0-14.8,59.4C76.527,211,90.1,234.053,112.666,255.8L227.5,370.63h62.271A70.139,70.139,0,0,0,359.905,300.491Z" transform="translate(-24.313 -35.038)" fill="url(#linear-gradient-2)"/>
  <path id="Tracé_2017" data-name="Tracé 2017" d="M0,344.628v38.68a70.139,70.139,0,0,0,70.139,70.139H265.453a70.139,70.139,0,0,0,70.139-70.139v-38.68Z" transform="translate(0 -117.854)" fill="url(#linear-gradient-3)"/>
  <g id="Groupe_2212" data-name="Groupe 2212" transform="translate(45.467 66.102)">
    <path id="Tracé_2018" data-name="Tracé 2018" d="M191.425,303.843a28.888,28.888,0,0,1-12.862-3.04c-12.01-6.01-35.462-18.9-57.586-37.687C92.2,238.675,75.14,212.44,70.276,185.14a74.319,74.319,0,0,1,14.8-59.4,65.713,65.713,0,0,1,48.713-25.206c1.129-.055,2.273-.083,3.4-.083a67.954,67.954,0,0,1,47.828,19.526,69.248,69.248,0,0,1,6.41,7.22,69.272,69.272,0,0,1,6.41-7.221,67.957,67.957,0,0,1,47.828-19.525c1.127,0,2.271.028,3.4.083a65.712,65.712,0,0,1,48.714,25.207,74.315,74.315,0,0,1,14.8,59.4c-4.863,27.3-21.921,53.534-50.7,77.975C239.75,281.9,216.3,294.793,204.287,300.8a28.879,28.879,0,0,1-12.862,3.04Z" transform="translate(-69.097 -100.456)" fill="url(#linear-gradient-4)"/>
    <path id="Tracé_2019" data-name="Tracé 2019" d="M84.4,269.959c8.625,17.7,22.6,34.809,41.814,51.123,22.123,18.789,45.576,31.677,57.586,37.687a28.73,28.73,0,0,0,25.725,0c12.011-6.01,35.463-18.9,57.586-37.687,19.21-16.314,33.189-33.428,41.814-51.123Z" transform="translate(-74.329 -158.422)" fill="url(#linear-gradient-5)"/>
    <path id="Tracé_2020" data-name="Tracé 2020" d="M191.425,227.727a71.081,71.081,0,0,1,0-100.524,69.186,69.186,0,0,0-6.41-7.221,67.956,67.956,0,0,0-47.828-19.526c-1.127,0-2.271.028-3.4.083a65.713,65.713,0,0,0-48.713,25.206,74.32,74.32,0,0,0-14.8,59.4c4.863,27.3,21.922,53.534,50.7,77.976C143.1,281.9,166.555,294.793,178.565,300.8a28.73,28.73,0,0,0,25.725,0,310.662,310.662,0,0,0,37.75-22.463Z" transform="translate(-69.097 -100.456)" fill="url(#linear-gradient-6)"/>
  </g>
  <path id="Tracé_2021" data-name="Tracé 2021" d="M317.177,241.372l-16.546-16.546a8.22,8.22,0,0,0-7.187-4.23H266.359a8.226,8.226,0,0,0-7.9,5.949l-.569,1.976-21.552-21.163a8.22,8.22,0,0,0-7.024-4.223h-.157a8.226,8.226,0,0,0-7.478,4.8l-1.459,3.188-26.853-26.439a8.221,8.221,0,0,0-7.185-4.234h-.037a8.225,8.225,0,0,0-7.79,5.693L163.1,233.276l-8.823-8.448a8.225,8.225,0,0,0-7.187-4.233H119.725a8.223,8.223,0,0,0-3.995,15.412l34.84,34.948.844,2.955a8.221,8.221,0,0,0,3.915,4.928l52.306,52.308a28.9,28.9,0,0,0,11.153-2.987c12.011-6.01,35.463-18.9,57.586-37.687C294.851,274.781,308.488,258.349,317.177,241.372Z" transform="translate(-38.13 -61.71)" fill="url(#linear-gradient-7)"/>
  <g id="Groupe_2213" data-name="Groupe 2213" transform="translate(73.37 150.035)">
    <path id="Tracé_2022" data-name="Tracé 2022" d="M300.994,241.452c0,.115.017.226.017.342a8.226,8.226,0,0,1-8.225,8.225H271.891L261.266,286.9a8.226,8.226,0,0,1-7.449,5.936c-.153.009-.306.013-.457.013a8.226,8.226,0,0,1-7.6-5.089L228.1,244.954,215.48,272.53a8.226,8.226,0,0,1-15.283-.822l-14.565-43.7-19.142,59.15a8.225,8.225,0,0,1-7.825,5.693h-.144a8.227,8.227,0,0,1-7.767-5.964l-10.531-36.865H119.067a8.227,8.227,0,0,1-7.565-4.994c0,.02,0,.039,0,.059a8.219,8.219,0,0,0,4.23,7.187l34.84,34.948.844,2.955a8.221,8.221,0,0,0,3.915,4.928l52.306,52.308a28.9,28.9,0,0,0,11.153-2.987c12.011-6.01,35.463-18.9,57.586-37.687,18.477-15.691,32.114-32.123,40.8-49.1Z" transform="translate(-111.5 -228.009)" fill="url(#linear-gradient-8)"/>
  </g>
  <path id="Tracé_2023" data-name="Tracé 2023" d="M253.018,278.877a8.225,8.225,0,0,1-7.6-5.089L227.76,230.98l-12.622,27.576a8.226,8.226,0,0,1-15.283-.823l-14.565-43.7-19.142,59.15a8.225,8.225,0,0,1-7.825,5.693h-.144a8.227,8.227,0,0,1-7.767-5.964l-10.531-36.864H118.725a8.225,8.225,0,1,1,0-16.451h27.363A8.227,8.227,0,0,1,154,225.562l4.817,16.861,18.537-57.279a8.224,8.224,0,0,1,7.79-5.693h.037a8.224,8.224,0,0,1,7.8,5.625l15.886,47.661,11.809-25.8a8.226,8.226,0,0,1,7.478-4.8h.157a8.225,8.225,0,0,1,7.447,5.088l15.883,38.508,5.815-20.187a8.224,8.224,0,0,1,7.9-5.949h27.085a8.225,8.225,0,1,1,0,16.451H271.549l-10.624,36.882a8.226,8.226,0,0,1-7.449,5.936c-.153.008-.306.012-.457.012Z" transform="translate(-37.788 -61.368)" fill="url(#linear-gradient-9)"/>
  <path id="Tracé_2024" data-name="Tracé 2024" d="M300.669,238.094a8.228,8.228,0,0,1-8.225,8.225H271.551L260.924,283.2a8.217,8.217,0,0,1-7.449,5.935c-.151.007-.3.013-.461.013a8.233,8.233,0,0,1-7.6-5.093l-17.655-42.8-12.621,27.578a8.228,8.228,0,0,1-15.286-.822l-14.562-43.7-19.142,59.15a8.227,8.227,0,0,1-7.824,5.692h-.145a8.229,8.229,0,0,1-7.765-5.968L139.881,246.32H118.725a8.228,8.228,0,0,1-8.225-8.225h31.111a5.934,5.934,0,0,1,5.705,4.3l6.284,22a5.236,5.236,0,0,0,10.015.178l16.655-51.457a5.231,5.231,0,0,1,9.943-.046l13.246,39.738a5.234,5.234,0,0,0,9.726.52l9.956-21.748a5.234,5.234,0,0,1,9.6.178l14.562,35.3a5.236,5.236,0,0,0,9.87-.546l6.949-24.13a5.928,5.928,0,0,1,5.7-4.29Z" transform="translate(-37.788 -71.641)" fill="url(#linear-gradient-10)"/>
</svg>
