<svg xmlns="http://www.w3.org/2000/svg" width="97.189" height="97.189" viewBox="0 0 97.189 97.189">
  <g id="_017-innovation" data-name="017-innovation" transform="translate(-0.001)">
    <path id="Tracé_2208" data-name="Tracé 2208" d="M166.548,442.662a2.849,2.849,0,0,0,2.865,2.847l28.265-.176a2.847,2.847,0,0,0,2.829-2.847V431.463l-16.98-1.532-16.98,1.532Z" transform="translate(-134.933 -348.321)" fill="#cee8ff"/>
    <path id="Tracé_2209" data-name="Tracé 2209" d="M272.981,431.462v11.023a2.847,2.847,0,0,1-2.83,2.847L256,445.421V429.93Z" transform="translate(-207.406 -348.32)" fill="#aedaff"/>
    <path id="Tracé_2210" data-name="Tracé 2210" d="M142.444,148.328a31.23,31.23,0,0,0-19.735-55.433h-.2a31.23,31.23,0,0,0-19.513,55.45c1.739,1.417,2.736,2.147,2.736,4.364l1.911,2.834h30.151l1.9-2.834C139.687,150.457,140.692,149.759,142.444,148.328Z" transform="translate(-74.112 -75.261)" fill="#ffda2d"/>
    <path id="Tracé_2211" data-name="Tracé 2211" d="M287.23,124.129a31.13,31.13,0,0,1-11.492,24.2c-1.752,1.431-2.758,2.13-2.758,4.381l-1.9,2.834H256V92.9h0A31.211,31.211,0,0,1,287.23,124.129Z" transform="translate(-207.406 -75.266)" fill="#ffaa17"/>
    <g id="Groupe_2269" data-name="Groupe 2269" transform="translate(32.651 31.209)">
      <path id="Tracé_2212" data-name="Tracé 2212" d="M172,208.059v17.9a.949.949,0,0,0,.525.849l15.421,7.7.949-9.469-.95-8.877-7.568-4.8Z" transform="translate(-172.002 -199.773)" fill="#e63950"/>
      <path id="Tracé_2213" data-name="Tracé 2213" d="M271.946,207.8,256,215.954V234.3l15.408-7.458a.949.949,0,0,0,.536-.854V207.8Z" transform="translate(-240.056 -199.564)" fill="#cd0000"/>
      <path id="Tracé_2214" data-name="Tracé 2214" d="M203.892,172.648l-15.945-8.236L172,172.7l15.945,8.1Z" transform="translate(-172.002 -164.412)" fill="#ff637b"/>
      <path id="Tracé_2215" data-name="Tracé 2215" d="M271.946,172.646,256,180.8V164.41Z" transform="translate(-240.056 -164.41)" fill="#e63950"/>
    </g>
    <path id="Tracé_2216" data-name="Tracé 2216" d="M8.733,240.932H2.848a2.847,2.847,0,1,0,0,5.695H8.733a2.847,2.847,0,1,0,0-5.695Z" transform="translate(0 -195.198)" fill="#ffda2d"/>
    <path id="Tracé_2217" data-name="Tracé 2217" d="M459.733,240.932h-5.884a2.847,2.847,0,0,0,0,5.695h5.884a2.847,2.847,0,0,0,0-5.695Z" transform="translate(-365.39 -195.198)" fill="#ffaa17"/>
    <path id="Tracé_2218" data-name="Tracé 2218" d="M243.848,0A2.847,2.847,0,0,0,241,2.847V8.732a2.847,2.847,0,0,0,5.695,0V2.847A2.847,2.847,0,0,0,243.848,0Z" transform="translate(-195.253)" fill="#ffda2d"/>
    <path id="Tracé_2219" data-name="Tracé 2219" d="M258.848,2.847V8.732A2.848,2.848,0,0,1,256,11.579V0A2.848,2.848,0,0,1,258.848,2.847Z" transform="translate(-207.406)" fill="#ffaa17"/>
    <path id="Tracé_2220" data-name="Tracé 2220" d="M75.448,71.353a2.847,2.847,0,0,0-4.027,4.027l4.161,4.161a2.847,2.847,0,0,0,4.027-4.027Z" transform="translate(-57.188 -57.133)" fill="#ffda2d"/>
    <path id="Tracé_2221" data-name="Tracé 2221" d="M394.353,390.258a2.847,2.847,0,1,0-4.027,4.027l4.161,4.161a2.847,2.847,0,0,0,4.027-4.027Z" transform="translate(-315.557 -315.503)" fill="#ffaa17"/>
    <path id="Tracé_2222" data-name="Tracé 2222" d="M75.583,390.258l-4.161,4.161a2.847,2.847,0,0,0,4.027,4.027l4.161-4.161a2.847,2.847,0,0,0-4.027-4.027Z" transform="translate(-57.188 -315.503)" fill="#ffda2d"/>
    <path id="Tracé_2223" data-name="Tracé 2223" d="M394.488,71.353l-4.161,4.161a2.847,2.847,0,1,0,4.027,4.027l4.161-4.161a2.847,2.847,0,0,0-4.027-4.027Z" transform="translate(-315.557 -57.133)" fill="#ffaa17"/>
    <path id="Tracé_2224" data-name="Tracé 2224" d="M166.549,408h33.959v5.695H166.549Z" transform="translate(-134.934 -330.553)" fill="#edf5ff"/>
    <path id="Tracé_2225" data-name="Tracé 2225" d="M256,408h16.98v5.695H256Z" transform="translate(-207.406 -330.553)" fill="#cee8ff"/>
  </g>
</svg>
