<svg id="_019-computer_graphic" data-name="019-computer graphic" xmlns="http://www.w3.org/2000/svg" width="127.201" height="127.201" viewBox="0 0 127.201 127.201">
  <path id="Tracé_2296" data-name="Tracé 2296" d="M179.635,371.991h-6.087V355.46H158.642v8.83a3.727,3.727,0,0,1-7.453,0v-8.83H136.282v16.531h-6.233a8.707,8.707,0,0,0-8.549,8.7v9.938a3.728,3.728,0,0,0,3.727,3.727H184.6a3.728,3.728,0,0,0,3.727-3.727v-9.938A8.7,8.7,0,0,0,179.635,371.991Z" transform="translate(-91.315 -267.15)" fill="#cee8ff"/>
  <path id="Tracé_2297" data-name="Tracé 2297" d="M289.415,380.686v9.938a3.728,3.728,0,0,1-3.727,3.727H256V368.016a3.728,3.728,0,0,0,3.727-3.727v-8.83h14.906v16.531h6.087A8.7,8.7,0,0,1,289.415,380.686Z" transform="translate(-192.4 -267.15)" fill="#aedaff"/>
  <path id="Tracé_2298" data-name="Tracé 2298" d="M123.474,0H3.727A3.727,3.727,0,0,0,0,3.727V85.96a3.727,3.727,0,0,0,3.727,3.727H123.474A3.727,3.727,0,0,0,127.2,85.96V3.727A3.727,3.727,0,0,0,123.474,0Z" fill="#004692"/>
  <path id="Tracé_2299" data-name="Tracé 2299" d="M319.6,3.727V85.96a3.728,3.728,0,0,1-3.727,3.727H256V0h59.874A3.728,3.728,0,0,1,319.6,3.727Z" transform="translate(-192.4)" fill="#00204d"/>
  <path id="Tracé_2300" data-name="Tracé 2300" d="M30,30H142.294v74.78H30Z" transform="translate(-22.547 -22.547)" fill="#4ec9ff"/>
  <path id="Tracé_2301" data-name="Tracé 2301" d="M256,30h56.147v74.78H256Z" transform="translate(-192.4 -22.547)" fill="#0095ff"/>
  <path id="Tracé_2302" data-name="Tracé 2302" d="M178.978,79.523v-15.3a3.727,3.727,0,0,0-3.727-3.727H139.477a3.727,3.727,0,0,0-3.727,3.727V100a3.727,3.727,0,0,0,3.727,3.727H154.92Z" transform="translate(-102.024 -45.469)" fill="#ffda2d"/>
  <path id="Tracé_2303" data-name="Tracé 2303" d="M269.354,64.227v15.3L256,92.959V60.5h9.627a3.728,3.728,0,0,1,3.727,3.727Z" transform="translate(-192.4 -45.469)" fill="#ffaa17"/>
  <path id="Tracé_2304" data-name="Tracé 2304" d="M236.969,137.071,212.91,161.276a20.5,20.5,0,1,0,24.059-24.205Z" transform="translate(-160.015 -103.017)" fill="#e63950"/>
  <path id="Tracé_2305" data-name="Tracé 2305" d="M285.875,157.176A20.49,20.49,0,0,1,256,175.4V150.506l13.354-13.436A20.527,20.527,0,0,1,285.875,157.176Z" transform="translate(-192.4 -103.017)" fill="#cd0000"/>
  <path id="Tracé_2306" data-name="Tracé 2306" d="M235.721,156.369V135.89A20.5,20.5,0,0,0,211.662,160.1h20.332A3.727,3.727,0,0,0,235.721,156.369Z" transform="translate(-158.767 -101.837)" fill="#ff7900"/>
  <path id="Tracé_2307" data-name="Tracé 2307" d="M269.354,135.889v20.479a3.728,3.728,0,0,1-3.727,3.727H256v-22.32A20.42,20.42,0,0,1,269.354,135.889Z" transform="translate(-192.4 -101.835)" fill="#ff4800"/>
</svg>
