<svg id="_023-ui_design" data-name="023-ui design" xmlns="http://www.w3.org/2000/svg" width="128.597" height="128.597" viewBox="0 0 128.597 128.597">
  <path id="Tracé_2486" data-name="Tracé 2486" d="M0,98.512v98.206a3.768,3.768,0,0,0,3.768,3.768H124.83a3.768,3.768,0,0,0,3.768-3.768V98.512L64.3,96Z" transform="translate(0 -71.888)" fill="#edf5ff"/>
  <path id="Tracé_2487" data-name="Tracé 2487" d="M320.3,98.512v98.206a3.769,3.769,0,0,1-3.767,3.768H256V96Z" transform="translate(-191.701 -71.888)" fill="#cee8ff"/>
  <path id="Tracé_2488" data-name="Tracé 2488" d="M128.6,3.768A3.768,3.768,0,0,0,124.83,0H3.768A3.768,3.768,0,0,0,0,3.768V26.624H128.6Z" transform="translate(0 0)" fill="#004692"/>
  <path id="Tracé_2489" data-name="Tracé 2489" d="M320.3,3.768V26.624H256V0h60.531A3.769,3.769,0,0,1,320.3,3.768Z" transform="translate(-191.701 0)" fill="#00204d"/>
  <path id="Tracé_2490" data-name="Tracé 2490" d="M159.941,189.416h-53a14.944,14.944,0,1,0,0,29.889h53a14.944,14.944,0,1,0,0-29.889Z" transform="translate(-68.893 -141.841)" fill="#ffda2d"/>
  <path id="Tracé_2491" data-name="Tracé 2491" d="M297.694,204.364a14.962,14.962,0,0,1-14.944,14.944H256V189.42h26.749a14.961,14.961,0,0,1,14.944,14.944Z" transform="translate(-191.701 -141.844)" fill="#ffaa17"/>
  <path id="Tracé_2492" data-name="Tracé 2492" d="M182.406,234.235h-53a7.409,7.409,0,1,1,0-14.819h53a7.409,7.409,0,1,1,0,14.819Z" transform="translate(-91.358 -164.306)" fill="#ff7900"/>
  <path id="Tracé_2493" data-name="Tracé 2493" d="M290.159,226.829a7.418,7.418,0,0,1-7.409,7.409H256V219.42h26.749A7.417,7.417,0,0,1,290.159,226.829Z" transform="translate(-191.701 -164.309)" fill="#ff4800"/>
  <path id="Tracé_2494" data-name="Tracé 2494" d="M311.806,275.4l-21.1-23.37a3.771,3.771,0,0,0-6.564,2.525v31.485a3.77,3.77,0,0,0,5.12,3.516l7.033-2.7,2.374,6.173a3.767,3.767,0,0,0,7.033-2.705l-2.374-6.173,7.033-2.705A3.769,3.769,0,0,0,311.806,275.4Z" transform="translate(-212.776 -187.798)" fill="#4ec9ff"/>
  <ellipse id="Ellipse_377" data-name="Ellipse 377" cx="4" cy="3.5" rx="4" ry="3.5" transform="translate(111 10)" fill="#e63950"/>
  <circle id="Ellipse_378" data-name="Ellipse 378" cx="3.5" cy="3.5" r="3.5" transform="translate(97 10)" fill="#ffda2d"/>
  <ellipse id="Ellipse_379" data-name="Ellipse 379" cx="4" cy="3.5" rx="4" ry="3.5" transform="translate(81 10)" fill="#32fca5"/>
</svg>
