<svg id="_034-choice" data-name="034-choice" xmlns="http://www.w3.org/2000/svg" width="91" height="90.566" viewBox="0 0 91 90.566">
  <circle id="Ellipse_431" data-name="Ellipse 431" cx="19" cy="19" r="19" transform="translate(53)" fill="#cd0000"/>
  <path id="Tracé_2927" data-name="Tracé 2927" d="M373.506,67.754l3.475-3.475a2.653,2.653,0,0,0-3.752-3.752L369.754,64l-3.475-3.475a2.653,2.653,0,0,0-3.752,3.752L366,67.754l-3.475,3.475a2.653,2.653,0,0,0,3.752,3.752l3.475-3.475,3.475,3.475a2.653,2.653,0,0,0,3.752-3.752Z" transform="translate(-297.761 -49.181)" fill="#ff637b"/>
  <circle id="Ellipse_432" data-name="Ellipse 432" cx="19" cy="19" r="19" fill="#00ca7d"/>
  <path id="Tracé_2928" data-name="Tracé 2928" d="M76.142,70.778a2.654,2.654,0,0,0-3.752,0l-5.376,5.376L65.529,74.67a2.653,2.653,0,0,0-3.752,3.752l3.361,3.361a2.653,2.653,0,0,0,3.752,0l7.252-7.252A2.653,2.653,0,0,0,76.142,70.778Z" transform="translate(-50.209 -57.619)" fill="#32fca5"/>
  <g id="Groupe_2481" data-name="Groupe 2481" transform="translate(23.434 26.356)">
    <path id="Tracé_2929" data-name="Tracé 2929" d="M150,209.672h31.486l1.769-1.769s0-27.955,0-27.49a5.837,5.837,0,0,0-5.116-5.793L159.9,172.349V154.837a5.837,5.837,0,1,0-11.675,0v31.484l-5.523-4.634a6.52,6.52,0,0,0-8.618.376,5.279,5.279,0,0,0,.345,7.9l13.8,11.576V207.9Z" transform="translate(-132.478 -149)" fill="#ffccbd"/>
  </g>
  <g id="Groupe_2482" data-name="Groupe 2482" transform="translate(45.283 26.361)">
    <path id="Tracé_2930" data-name="Tracé 2930" d="M284.925,180.433v27.5l-1.769,1.769H256V149.03a5.838,5.838,0,0,1,5.575,5.832v17.512l18.234,2.271A5.838,5.838,0,0,1,284.925,180.433Z" transform="translate(-256 -149.03)" fill="#ffbda9"/>
  </g>
  <path id="Tracé_2931" data-name="Tracé 2931" d="M256.544,482v3.538a1.769,1.769,0,0,1-1.769,1.769H223.289a1.769,1.769,0,0,1-1.769-1.769V482Z" transform="translate(-182.336 -396.74)" fill="#0066b2"/>
  <path id="Tracé_2932" data-name="Tracé 2932" d="M284.925,482v3.538a1.77,1.77,0,0,1-1.769,1.769H256V482Z" transform="translate(-210.717 -396.74)" fill="#004692"/>
</svg>
