<svg xmlns="http://www.w3.org/2000/svg" width="94.704" height="83.421" viewBox="0 0 94.704 83.421">
  <g id="_036-teamwork" data-name="036-teamwork" transform="translate(0 -30.5)">
    <path id="Tracé_3016" data-name="Tracé 3016" d="M33.48,253.373v28.115a2.776,2.776,0,0,1-2.775,2.775H2.775A2.776,2.776,0,0,1,0,281.488V253.373A13.887,13.887,0,0,1,13.873,239.5h5.734A13.887,13.887,0,0,1,33.48,253.373Z" transform="translate(0 -170.341)" fill="#32fca5"/>
    <path id="Tracé_3017" data-name="Tracé 3017" d="M364.479,253.373v28.115a2.776,2.776,0,0,1-2.775,2.775h-27.93A2.776,2.776,0,0,1,331,281.488V253.373A13.887,13.887,0,0,1,344.873,239.5h5.734A13.887,13.887,0,0,1,364.479,253.373Z" transform="translate(-269.775 -170.341)" fill="#e63950"/>
    <circle id="Ellipse_445" data-name="Ellipse 445" cx="11.098" cy="11.098" r="11.098" transform="translate(5.642 47.055)" fill="#d69a8b"/>
    <circle id="Ellipse_446" data-name="Ellipse 446" cx="11.098" cy="11.098" r="11.098" transform="translate(66.867 47.055)" fill="#c28678"/>
    <path id="Tracé_3018" data-name="Tracé 3018" d="M189.844,193.373v41.988H151V193.373A13.873,13.873,0,0,1,164.873,179.5h11.1A13.873,13.873,0,0,1,189.844,193.373Z" transform="translate(-123.07 -121.439)" fill="#ffda2d"/>
    <path id="Tracé_3019" data-name="Tracé 3019" d="M275.422,193.373v41.988H256V179.5h5.549A13.873,13.873,0,0,1,275.422,193.373Z" transform="translate(-208.648 -121.439)" fill="#ffaa17"/>
    <path id="Tracé_3020" data-name="Tracé 3020" d="M227.087,201.093l-5.549,7.343a2.778,2.778,0,0,1-4.428,0l-5.549-7.343a2.774,2.774,0,0,1-.464-2.4l5.168-19.2h6.119l5.168,19.2A2.774,2.774,0,0,1,227.087,201.093Z" transform="translate(-171.972 -121.439)" fill="#ff7900"/>
    <path id="Tracé_3021" data-name="Tracé 3021" d="M263.763,201.093l-5.549,7.343a2.762,2.762,0,0,1-2.214,1.1V179.5h3.059l5.168,19.2a2.774,2.774,0,0,1-.464,2.4Z" transform="translate(-208.648 -121.44)" fill="#ff4800"/>
    <circle id="Ellipse_447" data-name="Ellipse 447" cx="14" cy="14" r="14" transform="translate(33 30.5)" fill="#ffccbd"/>
    <path id="Tracé_3022" data-name="Tracé 3022" d="M269.873,44.373A13.887,13.887,0,0,1,256,58.245V30.5A13.887,13.887,0,0,1,269.873,44.373Z" transform="translate(-208.648)" fill="#ffbda9"/>
    <path id="Tracé_3023" data-name="Tracé 3023" d="M81.549,239.5v19.607a2.775,2.775,0,1,1-5.549,0V239.5Z" transform="translate(-61.942 -170.341)" fill="#00ca7d"/>
    <path id="Tracé_3024" data-name="Tracé 3024" d="M411.549,239.5v19.607a2.775,2.775,0,1,1-5.549,0V239.5Z" transform="translate(-330.902 -170.341)" fill="#cd0000"/>
  </g>
</svg>
