<svg id="_040-youtube" data-name="040-youtube" xmlns="http://www.w3.org/2000/svg" xmlns:xlink="http://www.w3.org/1999/xlink" width="336.117" height="336.117" viewBox="0 0 336.117 336.117">
  <defs>
    <linearGradient id="linear-gradient" x1="0.076" y1="0.076" x2="0.866" y2="0.866" gradientUnits="objectBoundingBox">
      <stop offset="0" stop-color="#dc4955"/>
      <stop offset="1" stop-color="#c4237c"/>
    </linearGradient>
    <linearGradient id="linear-gradient-2" x1="0.5" y1="0.135" x2="0.5" y2="0.91" gradientUnits="objectBoundingBox">
      <stop offset="0" stop-color="#8a1958" stop-opacity="0"/>
      <stop offset="1" stop-color="#8a1958"/>
    </linearGradient>
    <linearGradient id="linear-gradient-3" x1="0.5" y1="0.935" x2="0.5" y2="0.106" xlink:href="#linear-gradient"/>
    <linearGradient id="linear-gradient-4" x1="0.829" y1="0.886" x2="0.338" y2="0.467" xlink:href="#linear-gradient-2"/>
    <linearGradient id="linear-gradient-5" x1="0.153" y1="0.329" x2="0.629" y2="0.767" gradientUnits="objectBoundingBox">
      <stop offset="0" stop-color="#eef4ff"/>
      <stop offset="1" stop-color="#cfe7fd"/>
    </linearGradient>
    <linearGradient id="linear-gradient-6" x1="0.505" y1="0.656" x2="0.602" y2="0.822" gradientUnits="objectBoundingBox">
      <stop offset="0" stop-color="#8aaadc" stop-opacity="0"/>
      <stop offset="1" stop-color="#8aaadc"/>
    </linearGradient>
  </defs>
  <path id="Tracé_3179" data-name="Tracé 3179" d="M265.869,0H70.249A70.247,70.247,0,0,0,0,70.249v195.62a70.247,70.247,0,0,0,70.249,70.249h195.62a70.247,70.247,0,0,0,70.249-70.249V70.249A70.247,70.247,0,0,0,265.869,0ZM58,311.159a4.531,4.531,0,0,1-4.528,4.528H35.5a4.531,4.531,0,0,1-4.528-4.528V293.193a4.531,4.531,0,0,1,4.528-4.528H53.469A4.531,4.531,0,0,1,58,293.193ZM58,42.924a4.531,4.531,0,0,1-4.528,4.528H35.5a4.531,4.531,0,0,1-4.528-4.528V24.958A4.531,4.531,0,0,1,35.5,20.431H53.469A4.531,4.531,0,0,1,58,24.958Zm49.429,268.235a4.531,4.531,0,0,1-4.528,4.528H84.932a4.531,4.531,0,0,1-4.528-4.528V293.193a4.531,4.531,0,0,1,4.528-4.528H102.9a4.531,4.531,0,0,1,4.528,4.528Zm0-268.235a4.531,4.531,0,0,1-4.528,4.528H84.932A4.531,4.531,0,0,1,80.4,42.924V24.958a4.531,4.531,0,0,1,4.528-4.528H102.9a4.531,4.531,0,0,1,4.528,4.528Zm49.429,268.235a4.531,4.531,0,0,1-4.528,4.528H134.361a4.531,4.531,0,0,1-4.528-4.528V293.193a4.531,4.531,0,0,1,4.528-4.528h17.966a4.531,4.531,0,0,1,4.528,4.528Zm0-268.235a4.531,4.531,0,0,1-4.528,4.528H134.361a4.531,4.531,0,0,1-4.528-4.528V24.958a4.531,4.531,0,0,1,4.528-4.528h17.966a4.531,4.531,0,0,1,4.528,4.528Zm49.429,268.235a4.531,4.531,0,0,1-4.528,4.528H183.79a4.531,4.531,0,0,1-4.528-4.528V293.193a4.531,4.531,0,0,1,4.528-4.528h17.966a4.531,4.531,0,0,1,4.528,4.528Zm0-268.235a4.531,4.531,0,0,1-4.528,4.528H183.79a4.531,4.531,0,0,1-4.528-4.528V24.958a4.531,4.531,0,0,1,4.528-4.528h17.966a4.531,4.531,0,0,1,4.528,4.528Zm49.429,268.235a4.531,4.531,0,0,1-4.528,4.528H233.219a4.531,4.531,0,0,1-4.528-4.528V293.193a4.531,4.531,0,0,1,4.528-4.528h17.966a4.531,4.531,0,0,1,4.528,4.528Zm0-268.235a4.531,4.531,0,0,1-4.528,4.528H233.219a4.531,4.531,0,0,1-4.528-4.528V24.958a4.531,4.531,0,0,1,4.528-4.528h17.966a4.531,4.531,0,0,1,4.528,4.528Zm49.429,268.235a4.531,4.531,0,0,1-4.528,4.528H282.648a4.531,4.531,0,0,1-4.528-4.528V293.193a4.531,4.531,0,0,1,4.528-4.528h17.966a4.531,4.531,0,0,1,4.528,4.528Zm0-268.235a4.531,4.531,0,0,1-4.528,4.528H282.648a4.531,4.531,0,0,1-4.528-4.528V24.958a4.531,4.531,0,0,1,4.528-4.528h17.966a4.531,4.531,0,0,1,4.528,4.528Z" fill="url(#linear-gradient)"/>
  <path id="Tracé_3180" data-name="Tracé 3180" d="M0,344.63v38.739a70.247,70.247,0,0,0,70.249,70.249h195.62a70.247,70.247,0,0,0,70.249-70.249V344.63Zm58,84.029a4.531,4.531,0,0,1-4.528,4.528H35.5a4.531,4.531,0,0,1-4.528-4.528V410.694a4.531,4.531,0,0,1,4.528-4.528H53.469A4.531,4.531,0,0,1,58,410.694Zm49.429,0a4.531,4.531,0,0,1-4.528,4.528H84.932a4.531,4.531,0,0,1-4.528-4.528V410.694a4.531,4.531,0,0,1,4.528-4.528H102.9a4.531,4.531,0,0,1,4.528,4.528Zm49.429,0a4.531,4.531,0,0,1-4.528,4.528H134.361a4.531,4.531,0,0,1-4.528-4.528V410.694a4.531,4.531,0,0,1,4.528-4.528h17.966a4.531,4.531,0,0,1,4.528,4.528Zm49.429,0a4.531,4.531,0,0,1-4.528,4.528H183.79a4.531,4.531,0,0,1-4.528-4.528V410.694a4.531,4.531,0,0,1,4.528-4.528h17.966a4.531,4.531,0,0,1,4.528,4.528Zm49.429,0a4.531,4.531,0,0,1-4.528,4.528H233.219a4.531,4.531,0,0,1-4.528-4.528V410.694a4.531,4.531,0,0,1,4.528-4.528h17.966a4.531,4.531,0,0,1,4.528,4.528Zm49.429,0a4.531,4.531,0,0,1-4.528,4.528H282.648a4.531,4.531,0,0,1-4.528-4.528V410.694a4.531,4.531,0,0,1,4.528-4.528h17.966a4.531,4.531,0,0,1,4.528,4.528Z" transform="translate(0 -117.5)" fill="url(#linear-gradient-2)"/>
  <path id="Tracé_3181" data-name="Tracé 3181" d="M167.444,307.912a50.769,50.769,0,0,1-50.712-50.71V139.377a50.568,50.568,0,0,1,75.975-43.864l102.041,58.912a50.649,50.649,0,0,1,0,87.728L192.707,301.066a50.641,50.641,0,0,1-25.263,6.846h0Z" transform="translate(-39.799 -30.231)" fill="url(#linear-gradient-3)"/>
  <path id="Tracé_3182" data-name="Tracé 3182" d="M383.087,303.771V260.46l-78.433-78.433a38.947,38.947,0,0,0-10.662-9l-98.053-56.61c-25.857-14.928-58.177,3.732-58.177,33.589v113.22a38.275,38.275,0,0,0,13.987,29.83l33.508,33.508H199.3a4.531,4.531,0,0,1,4.528,4.528v14.039l28.885,28.885h80.129a70.247,70.247,0,0,0,70.249-70.249Zm-58,27.324a4.531,4.531,0,0,1,4.528-4.528h17.966a4.531,4.531,0,0,1,4.528,4.528v17.966a4.531,4.531,0,0,1-4.528,4.528H329.618a4.531,4.531,0,0,1-4.528-4.528Zm-71.837,17.966a4.531,4.531,0,0,1-4.528,4.528H230.76a4.531,4.531,0,0,1-4.528-4.528V331.1a4.531,4.531,0,0,1,4.528-4.528h17.966a4.531,4.531,0,0,1,4.528,4.528Zm49.429,0a4.531,4.531,0,0,1-4.528,4.528H280.189a4.531,4.531,0,0,1-4.528-4.528V331.1a4.531,4.531,0,0,1,4.528-4.528h17.966a4.531,4.531,0,0,1,4.528,4.528Z" transform="translate(-46.97 -37.902)" fill="url(#linear-gradient-4)"/>
  <path id="Tracé_3183" data-name="Tracé 3183" d="M292.991,172.031l-98.053-56.61c-25.857-14.928-58.177,3.732-58.177,33.589v113.22c0,29.856,32.321,48.517,58.177,33.589l98.053-56.61C318.848,224.28,318.848,186.959,292.991,172.031Z" transform="translate(-46.628 -37.561)" fill="url(#linear-gradient-5)"/>
  <path id="Tracé_3184" data-name="Tracé 3184" d="M292.991,172.031l-98.053-56.61c-25.857-14.928-58.177,3.732-58.177,33.589v113.22c0,29.856,32.321,48.517,58.177,33.589l98.053-56.61C318.848,224.28,318.848,186.959,292.991,172.031Z" transform="translate(-46.628 -37.561)" fill="url(#linear-gradient-6)"/>
</svg>
