<?xml version="1.0" encoding="UTF-8" standalone="no"?>
<!-- Created with Inkscape (http://www.inkscape.org/) -->

<svg
   xmlns:dc="http://purl.org/dc/elements/1.1/"
   xmlns:cc="http://creativecommons.org/ns#"
   xmlns:rdf="http://www.w3.org/1999/02/22-rdf-syntax-ns#"
   xmlns:svg="http://www.w3.org/2000/svg"
   xmlns="http://www.w3.org/2000/svg"
   xmlns:sodipodi="http://sodipodi.sourceforge.net/DTD/sodipodi-0.dtd"
   xmlns:inkscape="http://www.inkscape.org/namespaces/inkscape"
   width="203.8053mm"
   height="114.13731mm"
   viewBox="0 0 722.14476 404.42352"
   id="svg12163"
   version="1.1"
   inkscape:version="0.91 r13725"
   sodipodi:docname="desktop-tablet-mobile.svg">
  <defs
     id="defs12165" />
  <sodipodi:namedview
     id="base"
     pagecolor="#ffffff"
     bordercolor="#666666"
     borderopacity="1.0"
     inkscape:pageopacity="0.0"
     inkscape:pageshadow="2"
     inkscape:zoom="1.4"
     inkscape:cx="410.35809"
     inkscape:cy="40.78319"
     inkscape:document-units="px"
     inkscape:current-layer="layer1"
     showgrid="false"
     fit-margin-top="0"
     fit-margin-left="0"
     fit-margin-right="0"
     fit-margin-bottom="0"
     inkscape:window-width="3200"
     inkscape:window-height="1671"
     inkscape:window-x="0"
     inkscape:window-y="55"
     inkscape:window-maximized="1" />
  <metadata
     id="metadata12168">
    <rdf:RDF>
      <cc:Work
         rdf:about="">
        <dc:format>image/svg+xml</dc:format>
        <dc:type
           rdf:resource="http://purl.org/dc/dcmitype/StillImage" />
        <dc:title></dc:title>
      </cc:Work>
    </rdf:RDF>
  </metadata>
  <g
     inkscape:label="Layer 1"
     inkscape:groupmode="layer"
     id="layer1"
     transform="translate(-1170.3562,569.84955)">
    <path
       style="fill:#000000"
       d="m 1258.8241,-335.03542 c -5.0206,0 -9.0625,4.04193 -9.0625,9.0625 l 0,2.66992 0,146.14454 0,2.66992 c 0,5.02057 4.0419,9.0625 9.0625,9.0625 l 115.4257,0 c 5.0206,0 9.0606,-4.04193 9.0606,-9.0625 l 0,-2.66992 0,-146.14454 0,-2.66992 c 0,-5.02057 -4.04,-9.0625 -9.0606,-9.0625 l -115.4257,0 z m 0.248,14.25977 114.9395,0 0,138.50976 -114.9395,0 0,-138.50976 z m 57.4648,141.38086 a 5.8524151,5.8524151 0 0 1 5.8516,5.85351 5.8524151,5.8524151 0 0 1 -5.8516,5.85157 5.8524151,5.8524151 0 0 1 -5.8535,-5.85157 5.8524151,5.8524151 0 0 1 5.8535,-5.85351 z m -36.2792,2.36914 a 3.6229236,3.6229236 0 0 1 3.623,3.62305 3.6229236,3.6229236 0 0 1 -3.623,3.62304 3.6229236,3.6229236 0 0 1 -3.6231,-3.62304 3.6229236,3.6229236 0 0 1 3.6231,-3.62305 z m 67.582,0 a 3.6229236,3.6229236 0 0 1 3.623,3.62305 3.6229236,3.6229236 0 0 1 -3.623,3.62304 3.6229236,3.6229236 0 0 1 -3.6231,-3.62304 3.6229236,3.6229236 0 0 1 3.6231,-3.62305 z"
       id="rect11665"
       inkscape:connector-curvature="0" />
    <path
       style="fill:#000000"
       d="m 1197.3581,-260.2676 0,0 c -7.0546,-0.0107 -14.4662,-0.0301 -19.9902,0 -5.1658,0.0282 -6.1857,7.41695 -6.3867,9.72365 l -0.082,0 0,1.00196 -0.543,72.74414 0,0.70898 0,0 0,0.63086 0,0.70898 0.084,0 c 0.1561,1.75861 1.1124,9.27725 6.5098,9.30665 5.6397,0.0307 13.2202,0.0107 20.4082,0 0.3087,-4.7e-4 0.5697,4.4e-4 0.8769,0 7.1887,0.0107 14.7692,0.0307 20.4082,0 6.0757,-0.0331 6.0098,-10.18165 6.0098,-10.18165 l -0.043,0 0,-0.41796 c 0.031,-0.52809 0.043,-0.92383 0.043,-0.92383 l -0.039,0 0.1641,-71.90235 c 0,0 10e-4,-0.28143 0,-0.33398 -2e-4,-0.007 0,-0.0347 0,-0.043 l 0,-0.96289 c 0,0 10e-4,-0.28143 0,-0.33398 -0.022,-0.9488 -0.378,-9.69418 -6.1348,-9.72558 -5.8819,-0.0321 -13.8221,-0.0107 -21.2851,0 z m -5.3437,9.06738 11.7793,0 2.8574,1.98047 16.2149,0 0,75.51172 -49.7676,0 0,-75.51172 16.1191,0 z m 5.5527,78.49024 c 1.63,-1e-4 2.9514,1.41571 2.9512,3.16211 2e-4,1.7464 -1.3212,3.16221 -2.9512,3.16211 -1.6299,1e-4 -2.9513,-1.41571 -2.9511,-3.16211 -2e-4,-1.7464 1.3212,-3.16221 2.9511,-3.16211 z"
       id="path11691"
       inkscape:connector-curvature="0"
       sodipodi:nodetypes="ccccccccccccsccsccccccccccscccccccccccccccc" />
    <g
       id="g4306"
       transform="translate(1052.3145,-236.05514)"
       style="fill:#000000">
      <path
         inkscape:connector-curvature="0"
         id="path12116"
         style="fill:#000000"
         d="m 447.42999,3.3400416 0,0.0332 118.8476,0 -8.8496,39.5273504 c -2.95,13.569 -15.3411,22.41828 -28.9101,21.23828 l -0.5899,0 c -1.77,0 -3.5391,1.77106 -3.5391,3.53906 0,1.771 1.1814,2.95117 2.3594,2.95117 l 0.5899,0 50.1465,0 11.8007,0 17.6993,0 11.2089,0 50.7364,0 0.5898,0 c 1.181,-0.59 2.3594,-1.77217 2.3594,-2.95117 0,-1.77 -1.7701,-3.53906 -3.5391,-3.53906 l -0.5898,0 c -13.569,0.59 -25.9592,-8.25928 -28.9082,-21.23828 l -8.8516,-39.5273504 151.2598,0 0,-0.0332 -333.8203,0 z M 368.63698,-333.79441 c -7.079,0 -12.38867,5.30867 -12.38867,12.38867 l 0,307.9668 c 0,7.079 5.30967,12.38867 12.38867,12.38867 l 197.64061,0 -0.006,0.0293 63.7246,0 -0.006,-0.0293 197.6406,0 c 7.08,0 12.3907,-5.30967 12.3907,-12.38867 l 0,-307.9668 c 1.181,-7.08 -4.1271,-12.38867 -11.2071,-12.38867 l -460.17771,0 z m 8.25977,19.46875 444.83794,0 0,291.44531 -0.5899,0 -444.24804,0 0,-291.44531 z m 221.32034,294.55078 a 7.5245337,7.5245337 0 0 1 7.5254,7.52344 7.5245337,7.5245337 0 0 1 -7.5254,7.52539 7.5245337,7.5245337 0 0 1 -7.5235,-7.52539 7.5245337,7.5245337 0 0 1 7.5235,-7.52344 z" />
    </g>
  </g>
</svg>
