<svg xmlns="http://www.w3.org/2000/svg" width="12829" height="2124.643" viewBox="0 0 12829 2124.643">
  <g id="Groupe_2783" data-name="Groupe 2783" transform="translate(111 -1629.357)">
    <g id="Tracé_4106" data-name="Tracé 4106" transform="translate(-111 1901)" fill="red">
      <path d="M 6414.5 1851.500366210938 C 6304.7314453125 1851.500366210938 6193.6767578125 1851.095336914063 6084.421875 1850.29541015625 C 5976 1849.500366210938 5866.4033203125 1848.296997070313 5758.6767578125 1846.717041015625 C 5545.431640625 1843.588745117188 5331.15478515625 1838.865356445313 5121.79833984375 1832.677001953125 C 4915.15185546875 1826.570434570313 4708.3349609375 1818.888671875 4507.091796875 1809.848754882813 C 4308.10009765625 1800.90869140625 4109.82666015625 1790.427001953125 3917.7783203125 1778.693725585938 C 3727.506591796875 1767.070434570313 3538.861572265625 1753.943725585938 3357.086669921875 1739.682006835938 C 3266.76171875 1732.59375 3176.389892578125 1725.088745117188 3088.47998046875 1717.373657226563 C 3000.8349609375 1709.682006835938 2913.276611328125 1701.57373046875 2828.23828125 1693.275390625 C 2743.40673828125 1684.9970703125 2658.79833984375 1676.307006835938 2576.763427734375 1667.447021484375 C 2494.8798828125 1658.60205078125 2413.356689453125 1649.348754882813 2334.4599609375 1639.943725585938 C 2255.659912109375 1630.550415039063 2177.3583984375 1620.753662109375 2101.72998046875 1610.825317382813 C 2026.150024414063 1600.903686523438 1951.204956054688 1590.58203125 1878.978393554688 1580.150390625 C 1806.751708984375 1569.71875 1735.300048828125 1558.893676757813 1666.606689453125 1547.97705078125 C 1597.871704101563 1537.0537109375 1530.046630859375 1525.74365234375 1465.018310546875 1514.362060546875 C 1399.91162109375 1502.967041015625 1335.851684570313 1491.193725585938 1274.618286132813 1479.367065429688 C 1213.275024414063 1467.518676757813 1153.114990234375 1455.300415039063 1095.81005859375 1443.048706054688 C 1038.36669921875 1430.76708984375 982.2416381835938 1418.1220703125 928.9949951171875 1405.46533203125 C 875.5900268554688 1392.770385742188 823.6383056640625 1379.71875 774.5816650390625 1366.675415039063 C 725.3499755859375 1353.585327148438 677.7066650390625 1340.148681640625 632.969970703125 1326.73876953125 C 588.0516967773438 1313.275390625 544.8516845703125 1299.472045898438 504.5683288574219 1285.717041015625 C 464.1000061035156 1271.897094726563 425.4800109863281 1257.750366210938 389.7799987792969 1243.6669921875 C 353.9016723632813 1229.513671875 320 1215.040405273438 289.0150146484375 1200.652099609375 C 257.8633422851563 1186.18701171875 228.8166656494141 1171.411987304688 202.6799926757813 1156.73876953125 C 176.3950042724609 1141.983764648438 152.3399963378906 1126.930419921875 131.1849975585938 1111.9970703125 C 120.5616683959961 1104.498657226563 110.4499969482422 1096.875366210938 101.129997253418 1089.34033203125 C 91.78333282470703 1081.782104492188 82.97166442871094 1074.100341796875 74.94000244140625 1066.507080078125 C 66.88500213623047 1058.893676757813 59.38999938964844 1051.155395507813 52.66166687011719 1043.512084960938 C 45.91500091552734 1035.845336914063 39.75333404541016 1028.058715820313 34.34500122070313 1020.367065429688 C 28.92166709899902 1012.653686523438 24.10666656494141 1004.822021484375 20.03166580200195 997.0870361328125 C 15.94499969482422 989.3303833007813 12.48999977111816 981.4553833007813 9.761666297912598 973.6820678710938 C 7.025000095367432 965.8837280273438 4.943333148956299 957.9686889648438 3.571666717529297 950.1553955078125 C 2.196666717529297 942.313720703125 1.5 934.3554077148438 1.5 926.5003662109375 C 1.5 918.6420288085938 2.198333263397217 910.6170654296875 3.573333263397217 902.6453857421875 C 4.945000171661377 894.697021484375 7.028333187103271 886.58203125 9.766666412353516 878.5270385742188 C 12.49833297729492 870.4903564453125 15.95666694641113 862.2904052734375 20.04500007629395 854.1536865234375 C 24.12333297729492 846.0370483398438 28.94333267211914 837.7570190429688 34.36833190917969 829.5470581054688 C 39.78166580200195 821.3554077148438 45.95000076293945 813.0070190429688 52.69833374023438 804.7320556640625 C 59.43166732788086 796.4754028320313 66.93166351318359 788.063720703125 74.98833465576172 779.7320556640625 C 83.02666473388672 771.4170532226563 91.84166717529297 762.9537353515625 101.1883316040039 754.57373046875 C 110.5166702270508 746.2103881835938 120.6316680908203 737.7020263671875 131.2516632080078 729.2820434570313 C 152.4366607666016 712.487060546875 176.4966735839844 695.3637084960938 202.7599945068359 678.390380859375 C 228.9366607666016 661.4720458984375 257.9866638183594 644.2603759765625 289.1033325195313 627.2353515625 C 320.1433410644531 610.2503662109375 354.0466613769531 593.0070190429688 389.8733215332031 575.9853515625 C 425.6466674804688 558.9887084960938 464.2666625976563 541.7687377929688 504.663330078125 524.8037109375 C 545.038330078125 507.8487243652344 588.239990234375 490.7053833007813 633.066650390625 473.85205078125 C 677.9149780273438 456.9920349121094 725.5599975585938 439.9820556640625 774.6783447265625 423.2920532226563 C 823.8683471679688 406.5803833007813 875.8200073242188 389.7537231445313 929.0916748046875 373.2820434570313 C 982.4933471679688 356.7703857421875 1038.618286132813 340.1820373535156 1095.905029296875 323.9786987304688 C 1153.388305664063 307.7203674316406 1213.546630859375 291.4253845214844 1274.711669921875 275.543701171875 C 1336.14501953125 259.592041015625 1400.203369140625 243.640380859375 1465.108276367188 228.1320495605469 C 1530.359985351563 212.5403747558594 1598.183349609375 196.9870452880859 1666.693359375 181.9020385742188 C 1735.630004882813 166.7253723144531 1807.079956054688 151.6220397949219 1879.061645507813 137.0137176513672 C 1951.550048828125 122.3037109375 2026.493286132813 107.7053756713867 2101.811767578125 93.62371063232422 C 2177.716552734375 79.43370819091797 2256.0166015625 65.39204406738281 2334.53662109375 51.89037704467773 C 2413.7265625 38.27371215820313 2495.248291015625 24.84204483032227 2576.836669921875 11.97037792205811 C 2659.175048828125 -1.019622445106506 2743.78173828125 -13.78628921508789 2828.306640625 -25.97628974914551 C 2913.659912109375 -38.28628921508789 3001.216552734375 -50.33795547485352 3088.543212890625 -61.79462051391602 C 3176.776611328125 -73.37129211425781 3267.146728515625 -84.6529541015625 3357.14501953125 -95.32628631591797 C 3448.1201171875 -106.1162872314453 3541.169921875 -116.5746231079102 3633.708251953125 -126.412956237793 C 3727.2900390625 -136.3612823486328 3822.881591796875 -145.9446258544922 3917.828369140625 -154.8962860107422 C 4013.881591796875 -163.9512939453125 4111.8818359375 -172.6062927246094 4209.103515625 -180.61962890625 C 4307.49169921875 -188.7279510498047 4407.76318359375 -196.4012908935547 4507.1298828125 -203.4246215820313 C 4607.71826171875 -210.5346221923828 4710.12353515625 -217.1712951660156 4811.5048828125 -223.1529541015625 C 4914.15478515625 -229.2096252441406 5018.5615234375 -234.7596282958984 5121.8251953125 -239.6496276855469 C 5226.40185546875 -244.5996246337891 5332.67333984375 -249.0096282958984 5437.6884765625 -252.7529602050781 C 5544.05517578125 -256.5462951660156 5652.05517578125 -259.7612915039063 5758.68994140625 -262.3096313476563 C 5866.71142578125 -264.8896179199219 5976.30517578125 -266.8579406738281 6084.42822265625 -268.157958984375 C 6193.966796875 -269.474609375 6305.0185546875 -270.1429443359375 6414.5 -270.1429443359375 C 6523.9814453125 -270.1429443359375 6635.033203125 -269.474609375 6744.57177734375 -268.157958984375 C 6852.69482421875 -266.8579406738281 6962.28857421875 -264.8896179199219 7070.31005859375 -262.3096313476563 C 7176.94482421875 -259.7612915039063 7284.94482421875 -256.5462951660156 7391.3115234375 -252.7529602050781 C 7496.32666015625 -249.0096282958984 7602.59814453125 -244.5996246337891 7707.1748046875 -239.6496276855469 C 7810.4384765625 -234.7596282958984 7914.84521484375 -229.2096252441406 8017.4951171875 -223.1529541015625 C 8118.87646484375 -217.1712951660156 8221.28125 -210.5346221923828 8321.8701171875 -203.4246215820313 C 8421.236328125 -196.4012908935547 8521.5087890625 -188.7279510498047 8619.896484375 -180.61962890625 C 8717.1181640625 -172.6062927246094 8815.1181640625 -163.9512939453125 8911.171875 -154.8962860107422 C 9006.1181640625 -145.9446258544922 9101.7099609375 -136.3612823486328 9195.2919921875 -126.412956237793 C 9287.830078125 -116.5746231079102 9380.8798828125 -106.1162872314453 9471.85546875 -95.32628631591797 C 9561.853515625 -84.6529541015625 9652.2236328125 -73.37129211425781 9740.45703125 -61.79462051391602 C 9827.783203125 -50.33795547485352 9915.33984375 -38.28628921508789 10000.693359375 -25.97628974914551 C 10085.21875 -13.78628921508789 10169.8251953125 -1.019622445106506 10252.1630859375 11.97037792205811 C 10333.751953125 24.84204483032227 10415.2734375 38.27371215820313 10494.462890625 51.89037704467773 C 10572.9833984375 65.39204406738281 10651.283203125 79.43370819091797 10727.1884765625 93.62371063232422 C 10802.5068359375 107.7053756713867 10877.4501953125 122.3037109375 10949.9384765625 137.0137176513672 C 11021.919921875 151.6220397949219 11093.3701171875 166.7253723144531 11162.306640625 181.9020385742188 C 11230.81640625 196.9870452880859 11298.6396484375 212.5403747558594 11363.8916015625 228.1320495605469 C 11428.796875 243.640380859375 11492.85546875 259.592041015625 11554.2880859375 275.543701171875 C 11615.453125 291.4253845214844 11675.611328125 307.7203674316406 11733.0947265625 323.9786987304688 C 11790.3818359375 340.1820373535156 11846.5068359375 356.7703857421875 11899.908203125 373.2820434570313 C 11953.1796875 389.7537231445313 12005.1318359375 406.5803833007813 12054.3212890625 423.2920532226563 C 12103.4404296875 439.9820556640625 12151.0849609375 456.9920349121094 12195.93359375 473.85205078125 C 12240.759765625 490.7053833007813 12283.9619140625 507.8487243652344 12324.3369140625 524.8037109375 C 12364.7333984375 541.7687377929688 12403.353515625 558.9887084960938 12439.126953125 575.9853515625 C 12474.953125 593.0070190429688 12508.8564453125 610.2503662109375 12539.896484375 627.2353515625 C 12571.013671875 644.2603759765625 12600.0634765625 661.4720458984375 12626.240234375 678.390380859375 C 12652.5029296875 695.3637084960938 12676.5634765625 712.487060546875 12697.748046875 729.2820434570313 C 12708.3681640625 737.7020263671875 12718.4833984375 746.2103881835938 12727.8115234375 754.57373046875 C 12737.158203125 762.9537353515625 12745.9736328125 771.4170532226563 12754.01171875 779.7320556640625 C 12762.068359375 788.063720703125 12769.568359375 796.4754028320313 12776.3017578125 804.7320556640625 C 12783.0498046875 813.0070190429688 12789.21875 821.3554077148438 12794.6318359375 829.5470581054688 C 12800.056640625 837.7570190429688 12804.876953125 846.0370483398438 12808.955078125 854.1536865234375 C 12813.04296875 862.2904052734375 12816.501953125 870.4903564453125 12819.2333984375 878.5270385742188 C 12821.9716796875 886.58203125 12824.0546875 894.697021484375 12825.4267578125 902.6453857421875 C 12826.8017578125 910.6170654296875 12827.5 918.6420288085938 12827.5 926.5003662109375 C 12827.5 934.3554077148438 12826.8037109375 942.313720703125 12825.4287109375 950.1553955078125 C 12824.056640625 957.9686889648438 12821.974609375 965.8837280273438 12819.23828125 973.6820678710938 C 12816.509765625 981.4553833007813 12813.0546875 989.3303833007813 12808.96875 997.0870361328125 C 12804.8935546875 1004.822021484375 12800.078125 1012.653686523438 12794.6552734375 1020.367065429688 C 12789.2470703125 1028.058715820313 12783.0849609375 1035.845336914063 12776.337890625 1043.512084960938 C 12769.6103515625 1051.155395507813 12762.115234375 1058.893676757813 12754.0595703125 1066.507080078125 C 12746.0283203125 1074.100341796875 12737.216796875 1081.782104492188 12727.8701171875 1089.34033203125 C 12718.5498046875 1096.875366210938 12708.4384765625 1104.498657226563 12697.8154296875 1111.9970703125 C 12676.66015625 1126.930419921875 12652.60546875 1141.983764648438 12626.3203125 1156.73876953125 C 12600.18359375 1171.411987304688 12571.13671875 1186.18701171875 12539.9853515625 1200.652099609375 C 12509 1215.040405273438 12475.0986328125 1229.513671875 12439.2197265625 1243.6669921875 C 12403.51953125 1257.750366210938 12364.900390625 1271.897094726563 12324.431640625 1285.717041015625 C 12284.1484375 1299.472045898438 12240.9482421875 1313.275390625 12196.0302734375 1326.73876953125 C 12151.29296875 1340.148681640625 12103.650390625 1353.585327148438 12054.41796875 1366.675415039063 C 12005.361328125 1379.71875 11953.41015625 1392.770385742188 11900.0048828125 1405.46533203125 C 11846.7587890625 1418.1220703125 11790.6337890625 1430.76708984375 11733.1904296875 1443.048706054688 C 11675.884765625 1455.300415039063 11615.724609375 1467.518676757813 11554.3818359375 1479.367065429688 C 11493.1484375 1491.193725585938 11429.087890625 1502.967041015625 11363.9814453125 1514.362060546875 C 11298.953125 1525.74365234375 11231.1279296875 1537.0537109375 11162.3935546875 1547.97705078125 C 11093.7001953125 1558.893676757813 11022.248046875 1569.71875 10950.021484375 1580.150390625 C 10877.794921875 1590.58203125 10802.849609375 1600.903686523438 10727.26953125 1610.825317382813 C 10651.6416015625 1620.753662109375 10573.33984375 1630.550415039063 10494.5400390625 1639.943725585938 C 10415.6435546875 1649.348754882813 10334.1201171875 1658.60205078125 10252.236328125 1667.447021484375 C 10170.2021484375 1676.307006835938 10085.59375 1684.9970703125 10000.76171875 1693.275390625 C 9915.7236328125 1701.57373046875 9828.1650390625 1709.682006835938 9740.51953125 1717.373657226563 C 9652.6103515625 1725.088745117188 9562.23828125 1732.59375 9471.9130859375 1739.682006835938 C 9290.138671875 1753.943725585938 9101.4931640625 1767.070434570313 8911.2216796875 1778.693725585938 C 8719.1728515625 1790.427001953125 8520.900390625 1800.90869140625 8321.908203125 1809.848754882813 C 8120.6650390625 1818.888671875 7913.84814453125 1826.570434570313 7707.20166015625 1832.677001953125 C 7497.84521484375 1838.865356445313 7283.568359375 1843.588745117188 7070.3232421875 1846.717041015625 C 6962.5966796875 1848.296997070313 6853 1849.500366210938 6744.578125 1850.29541015625 C 6635.3232421875 1851.095336914063 6524.2685546875 1851.500366210938 6414.5 1851.500366210938 Z" stroke="none"/>
      <path d="M 6414.5 -268.6429443359375 C 6305.02490234375 -268.6429443359375 6193.978515625 -267.974609375 6084.44677734375 -266.657958984375 C 5976.328125 -265.35791015625 5866.74169921875 -263.3912353515625 5758.7265625 -260.8095703125 C 5652.0966796875 -258.26123046875 5544.103515625 -255.0462646484375 5437.74169921875 -251.254638671875 C 5332.7333984375 -247.51123046875 5226.466796875 -243.101318359375 5121.896484375 -238.1512451171875 C 5018.63818359375 -233.262939453125 4914.23828125 -227.7130126953125 4811.59326171875 -221.65625 C 4710.21826171875 -215.6746826171875 4607.818359375 -209.0379638671875 4507.2353515625 -201.927978515625 C 4407.875 -194.9046630859375 4307.6103515625 -187.23291015625 4209.2265625 -179.1246337890625 C 4112.009765625 -171.111328125 4014.0166015625 -162.4580078125 3917.96875 -153.4029541015625 C 3823.0283203125 -144.4530029296875 3727.443359375 -134.86962890625 3633.8662109375 -124.9212646484375 C 3541.3349609375 -115.0845947265625 3448.2919921875 -104.6263427734375 3357.3212890625 -93.8363037109375 C 3267.330078125 -83.1646728515625 3176.96484375 -71.8829345703125 3088.73828125 -60.3079833984375 C 3001.41796875 -48.851318359375 2913.8681640625 -36.80126953125 2828.51953125 -24.492919921875 C 2744.0029296875 -12.302978515625 2659.4033203125 0.4637451171875 2577.0703125 13.4520263671875 C 2495.48828125 26.32373046875 2413.974609375 39.753662109375 2334.7919921875 53.36865234375 C 2256.2783203125 66.870361328125 2177.9853515625 80.90869140625 2102.0869140625 95.0987548828125 C 2026.7763671875 109.1787109375 1951.841796875 123.775390625 1879.3603515625 138.4837646484375 C 1807.38671875 153.09033203125 1735.943359375 168.1920166015625 1667.0166015625 183.3670654296875 C 1598.513671875 198.4503173828125 1530.7001953125 214.0020751953125 1465.45703125 229.59033203125 C 1400.5615234375 245.0970458984375 1336.51171875 261.04541015625 1275.087890625 276.995361328125 C 1213.9345703125 292.8736572265625 1153.78515625 309.1669921875 1096.3115234375 325.4219970703125 C 1039.0380859375 341.6220703125 982.9248046875 358.20703125 929.53515625 374.71533203125 C 876.2763671875 391.1820068359375 824.337890625 408.003662109375 775.16015625 424.7120361328125 C 726.056640625 441.3970947265625 678.4287109375 458.402099609375 633.5947265625 475.257080078125 C 588.78515625 492.103759765625 545.6015625 509.23876953125 505.2451171875 526.18701171875 C 464.8681640625 543.14208984375 426.2685546875 560.35205078125 390.5185546875 577.3403930664063 C 354.716796875 594.3504028320313 320.837890625 611.5803833007813 289.8232421875 628.5503540039063 C 258.740234375 645.5603637695313 229.7197265625 662.7520141601563 203.5732421875 679.650390625 C 177.349609375 696.5970458984375 153.33203125 713.6920166015625 132.18359375 730.45703125 C 121.5869140625 738.8587036132813 111.4951171875 747.3486938476563 102.1904296875 755.6903686523438 C 92.8701171875 764.0470581054688 84.080078125 772.4853515625 76.06640625 780.773681640625 C 68.0380859375 789.0753784179688 60.568359375 797.4553833007813 53.8603515625 805.6787109375 C 47.1435546875 813.9154052734375 41.0068359375 822.2254028320313 35.6201171875 830.3753662109375 C 30.2265625 838.535400390625 25.4365234375 846.7620239257813 21.384765625 854.8270263671875 C 17.3271484375 862.9020385742188 13.896484375 871.0386962890625 11.1865234375 879.0087280273438 C 8.4736328125 886.9903564453125 6.41015625 895.0286865234375 5.0517578125 902.900390625 C 3.6904296875 910.7886962890625 3 918.7286987304688 3 926.5003662109375 C 3 934.2687377929688 3.6904296875 942.140380859375 5.0498046875 949.8953857421875 C 6.40625 957.6287231445313 8.46875 965.4636840820313 11.1767578125 973.1837158203125 C 13.8818359375 980.890380859375 17.306640625 988.697021484375 21.3583984375 996.3870239257813 C 25.4033203125 1004.065368652344 30.1845703125 1011.843688964844 35.5712890625 1019.503723144531 C 40.9482421875 1027.152099609375 47.078125 1034.895385742188 53.7880859375 1042.520385742188 C 60.4853515625 1050.13037109375 67.9482421875 1057.833740234375 75.9697265625 1065.4169921875 C 83.974609375 1072.983642578125 92.7568359375 1080.640380859375 102.0732421875 1088.173706054688 C 111.3681640625 1095.688720703125 121.453125 1103.2919921875 132.0498046875 1110.77197265625 C 153.1630859375 1125.675415039063 177.1728515625 1140.700439453125 203.4130859375 1155.430419921875 C 229.5166015625 1170.08544921875 258.5302734375 1184.842041015625 289.646484375 1199.2919921875 C 320.60546875 1213.668701171875 354.48046875 1228.128662109375 390.33203125 1242.27197265625 C 426.009765625 1256.345336914063 464.6064453125 1270.4853515625 505.0537109375 1284.297119140625 C 545.318359375 1298.047119140625 588.501953125 1311.84375 633.400390625 1325.302001953125 C 678.1220703125 1338.708740234375 725.751953125 1352.140380859375 774.966796875 1365.225341796875 C 824.009765625 1378.265380859375 875.9501953125 1391.313720703125 929.34375 1404.00537109375 C 982.578125 1416.660400390625 1038.69140625 1429.302001953125 1096.123046875 1441.58203125 C 1153.41796875 1453.830322265625 1213.568359375 1466.048706054688 1274.9033203125 1477.893676757813 C 1336.126953125 1489.71875 1400.1787109375 1501.492065429688 1465.2763671875 1512.885375976563 C 1530.2978515625 1524.265380859375 1598.115234375 1535.57373046875 1666.841796875 1546.495361328125 C 1735.5283203125 1557.410400390625 1806.9736328125 1568.233764648438 1879.193359375 1578.665405273438 C 1951.4130859375 1589.097045898438 2026.3515625 1599.4169921875 2101.9248046875 1609.338745117188 C 2177.5478515625 1619.265380859375 2255.84375 1629.06201171875 2334.638671875 1638.453735351563 C 2413.5302734375 1647.857055664063 2495.046875 1657.1103515625 2576.9248046875 1665.955322265625 C 2658.953125 1674.8154296875 2743.556640625 1683.50537109375 2828.3837890625 1691.781982421875 C 2913.4169921875 1700.080322265625 3000.9697265625 1708.18701171875 3088.611328125 1715.878662109375 C 3176.5166015625 1723.59375 3266.8837890625 1731.098754882813 3357.203125 1738.185424804688 C 3538.9697265625 1752.44873046875 3727.6064453125 1765.57373046875 3917.8701171875 1777.197021484375 C 4109.91015625 1788.9287109375 4308.1748046875 1799.410400390625 4507.158203125 1808.350341796875 C 4708.39501953125 1817.390380859375 4915.205078125 1825.0703125 5121.84326171875 1831.1787109375 C 5331.19189453125 1837.365356445313 5545.4599609375 1842.088745117188 5758.6982421875 1845.217041015625 C 5866.421875 1846.797119140625 5976.01513671875 1848.000366210938 6084.43310546875 1848.79541015625 C 6193.68310546875 1849.595336914063 6304.73486328125 1850.000366210938 6414.5 1850.000366210938 C 6524.26513671875 1850.000366210938 6635.31689453125 1849.595336914063 6744.56689453125 1848.79541015625 C 6852.98486328125 1848.000366210938 6962.578125 1846.797119140625 7070.3017578125 1845.217041015625 C 7283.5400390625 1842.088745117188 7497.80810546875 1837.365356445313 7707.15673828125 1831.1787109375 C 7913.794921875 1825.0703125 8120.60498046875 1817.390380859375 8321.841796875 1808.350341796875 C 8520.8251953125 1799.410400390625 8719.08984375 1788.9287109375 8911.1298828125 1777.197021484375 C 9101.3935546875 1765.57373046875 9290.0302734375 1752.44873046875 9471.796875 1738.185424804688 C 9562.1171875 1731.098754882813 9652.4833984375 1723.59375 9740.388671875 1715.878662109375 C 9828.0302734375 1708.18701171875 9915.5830078125 1700.080322265625 10000.6171875 1691.781982421875 C 10085.443359375 1683.50537109375 10170.046875 1674.8154296875 10252.0751953125 1665.955322265625 C 10333.953125 1657.1103515625 10415.4697265625 1647.857055664063 10494.361328125 1638.453735351563 C 10573.15625 1629.06201171875 10651.451171875 1619.265380859375 10727.0751953125 1609.338745117188 C 10802.6484375 1599.4169921875 10877.5869140625 1589.097045898438 10949.806640625 1578.665405273438 C 11022.0263671875 1568.233764648438 11093.4716796875 1557.410400390625 11162.158203125 1546.495361328125 C 11230.884765625 1535.57373046875 11298.701171875 1524.265380859375 11363.7236328125 1512.885375976563 C 11428.8212890625 1501.492065429688 11492.873046875 1489.71875 11554.0966796875 1477.893676757813 C 11615.431640625 1466.048706054688 11675.58203125 1453.830322265625 11732.876953125 1441.58203125 C 11790.30859375 1429.302001953125 11846.421875 1416.660400390625 11899.65625 1404.00537109375 C 11953.0498046875 1391.313720703125 12004.990234375 1378.265380859375 12054.033203125 1365.225341796875 C 12103.248046875 1352.140380859375 12150.8779296875 1338.708740234375 12195.599609375 1325.302001953125 C 12240.498046875 1311.84375 12283.681640625 1298.047119140625 12323.9462890625 1284.297119140625 C 12364.3935546875 1270.4853515625 12402.990234375 1256.345336914063 12438.66796875 1242.27197265625 C 12474.51953125 1228.128662109375 12508.39453125 1213.668701171875 12539.353515625 1199.2919921875 C 12570.4697265625 1184.842041015625 12599.4833984375 1170.08544921875 12625.5869140625 1155.430419921875 C 12651.826171875 1140.700439453125 12675.8369140625 1125.675415039063 12696.9501953125 1110.77197265625 C 12707.546875 1103.2919921875 12717.6318359375 1095.688720703125 12726.9267578125 1088.173706054688 C 12736.2431640625 1080.640380859375 12745.025390625 1072.983642578125 12753.0302734375 1065.4169921875 C 12761.0517578125 1057.833740234375 12768.5146484375 1050.13037109375 12775.2119140625 1042.520385742188 C 12781.921875 1034.895385742188 12788.0517578125 1027.152099609375 12793.4287109375 1019.503723144531 C 12798.8154296875 1011.843688964844 12803.5966796875 1004.065368652344 12807.6416015625 996.3870239257813 C 12811.693359375 988.697021484375 12815.1181640625 980.890380859375 12817.8232421875 973.1837158203125 C 12820.53125 965.4636840820313 12822.59375 957.6287231445313 12823.9501953125 949.8953857421875 C 12825.3095703125 942.140380859375 12826 934.2687377929688 12826 926.5003662109375 C 12826 918.7286987304688 12825.3095703125 910.7886962890625 12823.9482421875 902.900390625 C 12822.58984375 895.0286865234375 12820.5263671875 886.9903564453125 12817.8134765625 879.0087280273438 C 12815.103515625 871.0386962890625 12811.6728515625 862.9020385742188 12807.615234375 854.8270263671875 C 12803.5634765625 846.7620239257813 12798.7734375 838.535400390625 12793.3798828125 830.3753662109375 C 12787.9931640625 822.2254028320313 12781.8564453125 813.9154052734375 12775.1396484375 805.6787109375 C 12768.431640625 797.4553833007813 12760.9619140625 789.0753784179688 12752.93359375 780.773681640625 C 12744.919921875 772.4853515625 12736.1298828125 764.0470581054688 12726.8095703125 755.6903686523438 C 12717.5048828125 747.3486938476563 12707.4130859375 738.8587036132813 12696.81640625 730.45703125 C 12675.66796875 713.6920166015625 12651.650390625 696.5970458984375 12625.4267578125 679.650390625 C 12599.2802734375 662.7520141601563 12570.259765625 645.5603637695313 12539.1767578125 628.5503540039063 C 12508.162109375 611.5803833007813 12474.283203125 594.3504028320313 12438.4814453125 577.3403930664063 C 12402.7314453125 560.35205078125 12364.1318359375 543.14208984375 12323.7548828125 526.18701171875 C 12283.3984375 509.23876953125 12240.21484375 492.103759765625 12195.4052734375 475.257080078125 C 12150.5712890625 458.402099609375 12102.943359375 441.3970947265625 12053.83984375 424.7120361328125 C 12004.662109375 408.003662109375 11952.7236328125 391.1820068359375 11899.46484375 374.71533203125 C 11846.0751953125 358.20703125 11789.9619140625 341.6220703125 11732.6884765625 325.4219970703125 C 11675.21484375 309.1669921875 11615.064453125 292.8736572265625 11553.912109375 276.995361328125 C 11492.48828125 261.04541015625 11428.4384765625 245.0970458984375 11363.54296875 229.59033203125 C 11298.2998046875 214.0020751953125 11230.486328125 198.4503173828125 11161.9833984375 183.3670654296875 C 11093.056640625 168.1920166015625 11021.61328125 153.09033203125 10949.6396484375 138.4837646484375 C 10877.158203125 123.775390625 10802.2236328125 109.1787109375 10726.9130859375 95.0987548828125 C 10651.0146484375 80.90869140625 10572.7216796875 66.870361328125 10494.2080078125 53.36865234375 C 10415.025390625 39.753662109375 10333.51171875 26.32373046875 10251.9296875 13.4520263671875 C 10169.5966796875 0.4637451171875 10084.99609375 -12.302978515625 10000.48046875 -24.492919921875 C 9915.1318359375 -36.80126953125 9827.58203125 -48.851318359375 9740.26171875 -60.3079833984375 C 9652.03515625 -71.8829345703125 9561.669921875 -83.1646728515625 9471.677734375 -93.8363037109375 C 9380.7080078125 -104.6263427734375 9287.6650390625 -115.0845947265625 9195.1328125 -124.9212646484375 C 9101.556640625 -134.86962890625 9005.9716796875 -144.4530029296875 8911.03125 -153.4029541015625 C 8814.9833984375 -162.4580078125 8716.990234375 -171.111328125 8619.7734375 -179.1246337890625 C 8521.390625 -187.23291015625 8421.125 -194.9046630859375 8321.765625 -201.927978515625 C 8221.181640625 -209.0379638671875 8118.78173828125 -215.6746826171875 8017.40673828125 -221.65625 C 7914.76171875 -227.7130126953125 7810.36181640625 -233.262939453125 7707.103515625 -238.1512451171875 C 7602.533203125 -243.101318359375 7496.2666015625 -247.51123046875 7391.25830078125 -251.254638671875 C 7284.896484375 -255.0462646484375 7176.9033203125 -258.26123046875 7070.2734375 -260.8095703125 C 6962.25830078125 -263.3912353515625 6852.671875 -265.35791015625 6744.55322265625 -266.657958984375 C 6635.021484375 -267.974609375 6523.97509765625 -268.6429443359375 6414.5 -268.6429443359375 M 6414.5 -271.6429443359375 C 9957.1298828125 -271.6429443359375 12829 414.8087158203125 12829 926.5003662109375 C 12829 1438.192016601563 9957.1298828125 1853.000366210938 6414.5 1853.000366210938 C 2871.8701171875 1853.000366210938 0 1438.192016601563 0 926.5003662109375 C 0 414.8087158203125 2871.8701171875 -271.6429443359375 6414.5 -271.6429443359375 Z" stroke="none" fill="#D6D6D6"/>
    </g>
    <rect id="Rectangle_686" data-name="Rectangle 686" width="12660" height="987" transform="translate(-27 2767)" fill="#f5f5f5"/>
  </g>
</svg>
