<svg xmlns="http://www.w3.org/2000/svg" width="40%" height="" viewBox="0 0 12633.594 2125">
  <g id="Groupe_2786" data-name="Groupe 2786" transform="translate(0.594 -1629)">
    <g id="Groupe_2785" data-name="Groupe 2785">
      <g id="Groupe_2784" data-name="Groupe 2784">
        <g id="Groupe_2783" data-name="Groupe 2783" transform="translate(111)">
          <rect id="Rectangle_686" data-name="Rectangle 686" width="12633" height="2100" transform="translate(-111 1629)" fill="#D6D6D6"/>
          <path id="Tracé_4106" data-name="Tracé 4106" d="M7318.5-271.643c3261.753,0,5976.555,565.079,6311.572,1057.117,7.47,10.97,3.659,23.321,4.52,34.923-.41,23.419,0,47.709,0,70.359,0,511.692-2827.586,962.244-6316.092,962.244S1.222,1382.423,1.222,870.731c0-19.716-1.545-38.97,0-58.941.551-7.126-4.348-14.223,0-21.958C278.85,295.964,3012.885-271.643,6316.5-271.643Z" transform="translate(-111 1901)" fill="#f5f5f5"/>
        </g>
      </g>
      <rect id="Rectangle_687" data-name="Rectangle 687" width="12633" height="1062" transform="translate(0 2692)" fill="#f5f5f5"/>
    </g>
  </g>
</svg>
