<svg xmlns="http://www.w3.org/2000/svg" viewBox="0 0 50 50"><path d="M8 3.0117188C6.3126093 3.0117188 4.8354789 3.4916328 3.7539062 4.3652344C2.6723337 5.238836 2.0117188 6.533218 2.0117188 7.9472656C2.0117188 10.690836 4.4687078 12.814467 7.7167969 12.941406 A 0.98809878 0.98809878 0 0 0 8 12.988281C9.753566 12.988281 11.246191 12.474267 12.3125 11.564453C13.378809 10.654639 13.988281 9.3429353 13.988281 7.9472656 A 0.98809878 0.98809878 0 0 0 13.986328 7.8925781C13.832307 5.1316834 11.374781 3.0117187 8 3.0117188 z M 8 4.9882812C10.60907 4.9882812 11.895883 6.2693448 12.005859 7.9726562C11.998759 8.8049335 11.676559 9.5118991 11.03125 10.0625C10.378809 10.619186 9.371434 11.011719 8 11.011719C5.3980542 11.011719 3.9882813 9.5991704 3.9882812 7.9472656C3.9882812 7.1213132 4.3276663 6.4422421 4.9960938 5.9023438C5.6645211 5.3624454 6.6873907 4.9882813 8 4.9882812 z M 3 15 A 1.0001 1.0001 0 0 0 2 16L2 45 A 1.0001 1.0001 0 0 0 3 46L13 46 A 1.0001 1.0001 0 0 0 14 45L14 35.664062L14 16 A 1.0001 1.0001 0 0 0 13 15L3 15 z M 18 15 A 1.0001 1.0001 0 0 0 17 16L17 45 A 1.0001 1.0001 0 0 0 18 46L28 46 A 1.0001 1.0001 0 0 0 29 45L29 29L29 28.75L29 28.5C29 26.555577 30.555577 25 32.5 25C34.444423 25 36 26.555577 36 28.5L36 45 A 1.0001 1.0001 0 0 0 37 46L47 46 A 1.0001 1.0001 0 0 0 48 45L48 28C48 23.873476 46.787888 20.604454 44.744141 18.375C42.700394 16.145546 39.849212 15 36.787109 15C32.882872 15 30.521631 16.426076 29 17.601562L29 16 A 1.0001 1.0001 0 0 0 28 15L18 15 z M 4 17L12 17L12 35.664062L12 44L4 44L4 17 z M 19 17L27 17L27 19.638672 A 1.0001 1.0001 0 0 0 28.744141 20.306641C28.744141 20.306641 31.709841 17 36.787109 17C39.360007 17 41.615528 17.922268 43.269531 19.726562C44.923534 21.530858 46 24.261524 46 28L46 44L38 44L38 28.5 A 1.0001 1.0001 0 0 0 37.916016 28.089844C37.694061 25.26411 35.38033 23 32.5 23C29.474423 23 27 25.474423 27 28.5L27 28.75L27 29L27 44L19 44L19 17 z"/></svg>