<svg xmlns="http://www.w3.org/2000/svg" xmlns:xlink="http://www.w3.org/1999/xlink" width="239" height="231" viewBox="0 0 239 231">
  <defs>
    <linearGradient id="linear-gradient" x1="0.566" y1="0.389" x2="0.459" y2="0.66" gradientUnits="objectBoundingBox">
      <stop offset="0" stop-color="#c80"/>
      <stop offset="1" stop-color="#976a11"/>
    </linearGradient>
  </defs>
  <g id="Group_255" data-name="Group 255" transform="translate(-504 -657)">
    <g id="Ellipse_54" data-name="Ellipse 54" transform="translate(504 659)" stroke="#b27909" stroke-width="1" fill="url(#linear-gradient)">
      <circle cx="113.5" cy="113.5" r="113.5" stroke="none"/>
      <circle cx="113.5" cy="113.5" r="113" fill="none"/>
    </g>
    <g id="Path_174" data-name="Path 174" transform="translate(512 657)" fill="none">
      <path d="M115.5,0A115.5,115.5,0,1,1,0,115.5,115.5,115.5,0,0,1,115.5,0Z" stroke="none"/>
      <path d="M 115.5 3 C 107.8650588989258 3 100.2358093261719 3.768997192382812 92.82415771484375 5.285659790039062 C 85.60240173339844 6.763442993164062 78.49884033203125 8.968505859375 71.71084594726562 11.83956909179688 C 65.04541015625 14.6588134765625 58.61634826660156 18.1484375 52.60227966308594 22.21147155761719 C 46.64456176757812 26.23640441894531 41.04209899902344 30.85887145996094 35.95050048828125 35.95050048828125 C 30.85887145996094 41.04209899902344 26.23640441894531 46.64456176757812 22.21147155761719 52.60227966308594 C 18.1484375 58.61634826660156 14.6588134765625 65.04541015625 11.83956909179688 71.71084594726562 C 8.968505859375 78.49884033203125 6.763442993164062 85.60240173339844 5.285659790039062 92.82415771484375 C 3.768997192382812 100.2358093261719 3 107.8650588989258 3 115.5 C 3 123.1349411010742 3.768997192382812 130.7641906738281 5.285659790039062 138.1758422851562 C 6.763442993164062 145.3975830078125 8.968505859375 152.5011596679688 11.83956909179688 159.2891540527344 C 14.6588134765625 165.95458984375 18.1484375 172.3836517333984 22.21147155761719 178.3977203369141 C 26.23640441894531 184.3554382324219 30.85887145996094 189.9579010009766 35.95050048828125 195.0494995117188 C 41.04209899902344 200.1411285400391 46.64456176757812 204.7635955810547 52.60227966308594 208.7885284423828 C 58.61634826660156 212.8515625 65.04541015625 216.3411865234375 71.71084594726562 219.1604309082031 C 78.49884033203125 222.031494140625 85.60240173339844 224.2365570068359 92.82415771484375 225.7143402099609 C 100.2358093261719 227.2310028076172 107.8650588989258 228 115.5 228 C 123.1349411010742 228 130.7641906738281 227.2310028076172 138.1758422851562 225.7143402099609 C 145.3975830078125 224.2365570068359 152.5011596679688 222.031494140625 159.2891540527344 219.1604309082031 C 165.95458984375 216.3411865234375 172.3836517333984 212.8515625 178.3977203369141 208.7885284423828 C 184.3554382324219 204.7635955810547 189.9579010009766 200.1411285400391 195.0494995117188 195.0494995117188 C 200.1411285400391 189.9579010009766 204.7635955810547 184.3554382324219 208.7885284423828 178.3977203369141 C 212.8515625 172.3836517333984 216.3411865234375 165.95458984375 219.1604309082031 159.2891540527344 C 222.031494140625 152.5011596679688 224.2365570068359 145.3975830078125 225.7143402099609 138.1758422851562 C 227.2310028076172 130.7641906738281 228 123.1349411010742 228 115.5 C 228 107.8650588989258 227.2310028076172 100.2358093261719 225.7143402099609 92.82415771484375 C 224.2365570068359 85.60240173339844 222.031494140625 78.49884033203125 219.1604309082031 71.71084594726562 C 216.3411865234375 65.04541015625 212.8515625 58.61634826660156 208.7885284423828 52.60227966308594 C 204.7635955810547 46.64456176757812 200.1411285400391 41.04209899902344 195.0494995117188 35.95050048828125 C 189.9579010009766 30.85887145996094 184.3554382324219 26.23640441894531 178.3977203369141 22.21147155761719 C 172.3836517333984 18.1484375 165.95458984375 14.6588134765625 159.2891540527344 11.83956909179688 C 152.5011596679688 8.968505859375 145.3975830078125 6.763442993164062 138.1758422851562 5.285659790039062 C 130.7641906738281 3.768997192382812 123.1349411010742 3 115.5 3 M 115.5 0 C 179.2888793945312 0 231 51.71112060546875 231 115.5 C 231 179.2888793945312 179.2888793945312 231 115.5 231 C 51.71112060546875 231 0 179.2888793945312 0 115.5 C 0 51.71112060546875 51.71112060546875 0 115.5 0 Z" stroke="none" fill="#f7f7f7"/>
    </g>
    <g id="Group_254" data-name="Group 254" transform="translate(6 -2)">
      <text id="Mazala" transform="translate(542 787)" fill="#fff" font-size="35" font-family="CartoonistKooky, Cartoonist Kooky"><tspan x="0" y="0">Mazala</tspan></text>
      <text id="_" data-name="&lt;&lt;" transform="translate(512 784)" fill="#fff" font-size="35" font-family="CartoonistKooky, Cartoonist Kooky"><tspan x="0" y="0">&lt;</tspan><tspan y="0" font-family="Bahnschrift" font-weight="700">&lt;</tspan></text>
      <text id="_2" data-name="&lt;/&gt;" transform="translate(671 787)" fill="#fff" font-size="35" font-family="CartoonistKooky, Cartoonist Kooky"><tspan x="0" y="0">&lt;</tspan><tspan y="0" font-family="Bahnschrift" font-weight="700">/&gt;</tspan></text>
    </g>
  </g>
</svg>
