<svg id="Layer_1" height="512" viewBox="0 0 512 512" width="512" xmlns="http://www.w3.org/2000/svg" data-name="Layer 1"><path d="m101 76h253v330h-253z" fill="#91b1c4"/><path d="m101 76h30v330h-30z" fill="#6b828e"/><path d="m101 404v49.81a41.911 41.911 0 0 0 41.86 42.19h168.76a42.354 42.354 0 0 0 42.38-42.19v-49.81z" fill="#6d7486"/><path d="m353.81 58.19v21.65h-253.14v-21.65a42.191 42.191 0 0 1 42.19-42.19h168.76a42.191 42.191 0 0 1 42.19 42.19z" fill="#6d7486"/><circle cx="227.24" cy="447.96" fill="#4a5160" r="10.55"/><path d="m306.667 361.667-6.067-2.937a33.935 33.935 0 0 0 -46.31 12.69l71.76 45.38z" fill="#efc597"/><path d="m195.38 122h-147.69a20.582 20.582 0 0 0 -20.69 20.65v92.61a20.671 20.671 0 0 0 20.69 20.74h70.16a1.114 1.114 0 0 1 .17.02 3.372 3.372 0 0 1 3.16 3.565c-1.75 41.16 33.07 50.552 33.07 50.552s-13.47-54.137 23.19-54.137h17.94a20.631 20.631 0 0 0 20.62-20.77v-92.58a20.523 20.523 0 0 0 -20.62-20.65z" fill="#5fa8ed"/><path d="m481.9 343.26-25.18-82.19a21.855 21.855 0 1 0 -41.79 12.81l-4.27-13.93a21.853 21.853 0 1 0 -41.79 12.8 21.838 21.838 0 0 0 -15.06-14.66 21.548 21.548 0 0 0 -5.84-.8 21.856 21.856 0 0 0 -20.89 28.26l-32.43-105.87a21.853 21.853 0 1 0 -41.79 12.8l61.87 201.99a72.865 72.865 0 0 0 90.99 48.32l27.86-8.54a72.85 72.85 0 0 0 48.32-90.99z" fill="#ffd8b7"/><path d="m131 453.81v-49.81h-30v49.81a41.911 41.911 0 0 0 41.86 42.19h30a41.911 41.911 0 0 1 -41.86-42.19z" fill="#4a4f5b"/><path d="m131 58.19a41.911 41.911 0 0 1 41.86-42.19h-30a41.911 41.911 0 0 0 -41.86 42.19v21.81h30z" fill="#4a4f5b"/><g fill="#284268"><path d="m227.242 431.413a16.547 16.547 0 1 0 16.547 16.547 16.566 16.566 0 0 0 -16.547-16.547zm0 21.094a4.547 4.547 0 1 1 4.547-4.547 4.553 4.553 0 0 1 -4.547 4.547z"/><path d="m128 47h-2a6 6 0 0 0 0 12h2a6 6 0 0 0 0-12z"/><path d="m240 47h-92a6 6 0 0 0 0 12h92a6 6 0 0 0 0-12z"/><path d="m57.575 171h45.762a6 6 0 0 0 0-12h-45.762a6 6 0 1 0 0 12z"/><path d="m122.3 165a6 6 0 0 0 6 6h57.2a6 6 0 0 0 0-12h-57.2a6 6 0 0 0 -6 6z"/><path d="m155.1 191a6 6 0 0 0 -6-6h-91.525a6 6 0 1 0 0 12h91.525a6 6 0 0 0 6-6z"/><path d="m185.5 185h-11.441a6 6 0 1 0 0 12h11.441a6 6 0 0 0 0-12z"/><path d="m107.5 211h-49.925a6 6 0 1 0 0 12h49.925a6 6 0 1 0 0-12z"/><path d="m185.5 211h-53.042a6 6 0 1 0 0 12h53.042a6 6 0 0 0 0-12z"/><path d="m462.456 259.317a27.837 27.837 0 0 0 -18.3-18.442 26.737 26.737 0 0 0 -11.449-1.1 27.882 27.882 0 0 0 -19.524 11.48 27.835 27.835 0 0 0 -49.375 5 28.173 28.173 0 0 0 -3.808-2.2v-195.865a48.407 48.407 0 0 0 -48.379-48.19h-168.759a47.966 47.966 0 0 0 -47.862 48.19v57.81h-47.31a26.69 26.69 0 0 0 -26.69 26.69v92.581a26.686 26.686 0 0 0 26.661 26.729h47.339v191.81a47.966 47.966 0 0 0 47.862 48.19h168.759a48.407 48.407 0 0 0 48.379-48.19v-5.724a78.4 78.4 0 0 0 47.475.437l27.862-8.534a78.94 78.94 0 0 0 52.3-98.483zm-355.456-201.127a35.952 35.952 0 0 1 35.862-36.19h168.759a36.393 36.393 0 0 1 36.379 36.19v15.81h-241zm241 395.62a36.393 36.393 0 0 1 -36.379 36.19h-168.759a35.952 35.952 0 0 1 -35.862-36.19v-43.81h197.073l17.91 11.327a79.1 79.1 0 0 0 26.017 21.707zm-85.171-84.092a27.976 27.976 0 0 1 34.8-5.78l1.783 1.016 9.58 31.273c.352 1.149.733 2.281 1.131 3.4zm168.993 58.8-27.861 8.534a66.919 66.919 0 0 1 -83.494-44.337l-23.667-77.277a6 6 0 0 0 -7.447-3.994 6 6 0 0 0 -4.028 7.509l9.45 30.848a39.978 39.978 0 0 0 -45.694 18.645 6 6 0 0 0 2.006 8.041l34.013 21.513h-178.1v-136h8.115c-.152 22 9.588 35.384 17.973 42.789a53.882 53.882 0 0 0 19.6 11.144 5.948 5.948 0 0 0 1.559.21 6.017 6.017 0 0 0 5.276-3.13 6.169 6.169 0 0 0 .518-4.45c-1.919-7.887-5-30.136 3.174-40.576 3.149-4.022 7.8-5.987 14.222-5.987h17.94a26.624 26.624 0 0 0 26.623-26.624v-92.73a26.646 26.646 0 0 0 -26.646-26.646h-32.354a6 6 0 0 0 0 12h32.376a14.624 14.624 0 0 1 14.624 14.624v92.6a14.776 14.776 0 0 1 -14.776 14.776h-17.788c-10.219 0-18.189 3.576-23.686 10.609-8.567 10.96-8.543 27.99-7.293 39.319-8.73-5.553-20.239-17.24-19.287-40.044a9.366 9.366 0 0 0 -9.188-9.884h-.136-70.178a14.686 14.686 0 0 1 -14.668-14.775v-92.533a14.692 14.692 0 0 1 14.692-14.692h73.308a6 6 0 0 0 0-12h-14v-30h241v165.3a27.771 27.771 0 0 0 -21.888 10.613l-25.727-83.991a27.854 27.854 0 0 0 -53.266 16.316l25.9 84.558a6 6 0 0 0 7.447 3.994 6 6 0 0 0 4.027-7.509l-25.9-84.557a15.958 15.958 0 0 1 4.08-16.043 12.22 12.22 0 0 1 1.687-1.425 15.909 15.909 0 0 1 24.549 8.181l47.365 154.628a6 6 0 1 0 11.475-3.515l-14.935-48.756a15.854 15.854 0 1 1 30.317-9.287l14.934 48.756a6 6 0 0 0 11.475-3.514l-14.935-48.757a15.854 15.854 0 0 1 30.317-9.287l14.935 48.757a6 6 0 0 0 11.475-3.515l-10.668-34.826a15.96 15.96 0 0 1 4.14-16.1 11.984 11.984 0 0 1 1.7-1.425 15.956 15.956 0 0 1 16.749-1.118 15.739 15.739 0 0 1 7.722 9.359l25.177 82.189a66.923 66.923 0 0 1 -44.33 83.489z"/></g></svg>