<svg xmlns="http://www.w3.org/2000/svg" width="947.808" height="544.591" viewBox="0 0 947.808 544.591">
  <g id="undraw_progressive_app_m9ms" transform="translate(0 0)">
    <circle id="Ellipse_629" data-name="Ellipse 629" cx="49.291" cy="49.291" r="49.291" transform="translate(156.073 384.825)" fill="#f2f2f2"/>
    <circle id="Ellipse_630" data-name="Ellipse 630" cx="49.291" cy="49.291" r="49.291" transform="translate(164.087 377.612)" fill="#3f3d56"/>
    <rect id="Rectangle_662" data-name="Rectangle 662" width="609.867" height="1.664" transform="translate(253.075 372.363)" fill="#3f3d56"/>
    <path id="Tracé_4046" data-name="Tracé 4046" d="M603.844,140.48H387.38v-4.462H289.226v4.462H71.868a14.642,14.642,0,0,0-14.642,14.642V451.529a14.642,14.642,0,0,0,14.642,14.642H603.844a14.642,14.642,0,0,0,14.642-14.642V155.122a14.642,14.642,0,0,0-14.642-14.642Z" transform="translate(-34.918 -124.961)" fill="#3f3d56"/>
    <rect id="Rectangle_663" data-name="Rectangle 663" width="521.999" height="294.461" transform="translate(41.938 41.396)" fill="#3f3d56"/>
    <circle id="Ellipse_631" data-name="Ellipse 631" cx="5.354" cy="5.354" r="5.354" transform="translate(297.138 22.657)" fill="#fff"/>
    <path id="Tracé_4047" data-name="Tracé 4047" d="M423.122,344.215H50.406V49.754Z" transform="translate(-8.467 -8.358)" opacity="0.1"/>
    <circle id="Ellipse_632" data-name="Ellipse 632" cx="50.176" cy="50.176" r="50.176" transform="translate(73.44 213.469)" fill="#f2f2f2"/>
    <rect id="Rectangle_664" data-name="Rectangle 664" width="48.76" height="10.189" transform="translate(424.289 200.201)" fill="#fff"/>
    <rect id="Rectangle_665" data-name="Rectangle 665" width="166.658" height="4.367" transform="translate(365.34 120.874)" fill="#fff"/>
    <rect id="Rectangle_666" data-name="Rectangle 666" width="166.658" height="4.367" transform="translate(365.34 134.702)" fill="#fff"/>
    <rect id="Rectangle_667" data-name="Rectangle 667" width="166.658" height="4.367" transform="translate(365.34 148.53)" fill="#fff"/>
    <rect id="Rectangle_668" data-name="Rectangle 668" width="166.658" height="4.367" transform="translate(365.34 162.357)" fill="#fff"/>
    <rect id="Rectangle_669" data-name="Rectangle 669" width="166.658" height="4.367" transform="translate(365.34 176.185)" fill="#fff"/>
    <rect id="Rectangle_670" data-name="Rectangle 670" width="20.377" height="20.377" transform="translate(511.62 47.37)" fill="#f2f2f2"/>
    <path id="Tracé_4048" data-name="Tracé 4048" d="M676.2,210.529H651.455V185.785H676.2Zm-23.668-1.076h22.592V186.861H652.531Z" transform="translate(-134.74 -133.321)" fill="#3f3d56"/>
    <path id="Tracé_4049" data-name="Tracé 4049" d="M628.64,519.072H577.7V515.4a.728.728,0,0,0-.728-.728H559.5a.728.728,0,0,0-.728.728v3.671H547.857V515.4a.728.728,0,0,0-.728-.728H529.663a.728.728,0,0,0-.728.728v3.671H518.019V515.4a.728.728,0,0,0-.728-.728H499.825a.728.728,0,0,0-.728.728v3.67H488.181V515.4a.728.728,0,0,0-.728-.728H469.986a.728.728,0,0,0-.728.728v3.671H458.342V515.4a.728.728,0,0,0-.728-.728H440.148a.728.728,0,0,0-.728.728v3.671H428.5V515.4a.728.728,0,0,0-.728-.728H410.309a.728.728,0,0,0-.728.728v3.671H398.665V515.4a.728.728,0,0,0-.728-.728H261.117a.728.728,0,0,0-.728.728v3.671H249.473V515.4a.728.728,0,0,0-.728-.728H231.278a.728.728,0,0,0-.728.728v3.671H219.634V515.4a.728.728,0,0,0-.728-.728H201.44a.728.728,0,0,0-.728.728v3.671H189.8V515.4a.728.728,0,0,0-.728-.728H171.6a.728.728,0,0,0-.728.728v3.671H159.957V515.4a.728.728,0,0,0-.728-.728H141.763a.728.728,0,0,0-.728.728v3.671H130.119V515.4a.728.728,0,0,0-.728-.728H111.924a.728.728,0,0,0-.728.728v3.671H100.28V515.4a.728.728,0,0,0-.728-.728H82.086a.728.728,0,0,0-.728.728v3.671H47.881a17.466,17.466,0,0,0-17.466,17.466v7.9A17.466,17.466,0,0,0,47.881,561.9H628.64a17.467,17.467,0,0,0,17.466-17.466v-7.9a17.466,17.466,0,0,0-17.466-17.466Z" transform="translate(-30.415 -188.569)" fill="#4a485e"/>
    <path id="Tracé_4050" data-name="Tracé 4050" d="M180.819,451.738a63.233,63.233,0,1,1,63.233-63.233,63.233,63.233,0,0,1-63.233,63.233Zm0-124.8a61.569,61.569,0,1,0,61.569,61.569,61.569,61.569,0,0,0-61.569-61.569Z" transform="translate(-45.058 -156.753)" fill="#4d4974"/>
    <rect id="Rectangle_671" data-name="Rectangle 671" width="212.164" height="1.664" transform="translate(487.703 27.076)" fill="#3f3d56"/>
    <rect id="Rectangle_672" data-name="Rectangle 672" width="609.867" height="1.664" transform="translate(337.94 466.38)" fill="#3f3d56"/>
    <rect id="Rectangle_673" data-name="Rectangle 673" width="212.164" height="1.664" transform="translate(160.306 542.926)" fill="#3f3d56"/>
    <rect id="Rectangle_674" data-name="Rectangle 674" width="23" height="24" transform="translate(392 457)" fill="#3f3d56"/>
    <path id="Tracé_4051" data-name="Tracé 4051" d="M540.7,679.017H512.415V650.728H540.7Zm-27.059-1.23h25.828V651.959H513.645Z" transform="translate(-111.383 -211.424)" fill="#3f3d56"/>
    <rect id="Rectangle_675" data-name="Rectangle 675" width="23" height="23" transform="translate(662 18)" fill="#3f3d56"/>
    <path id="Tracé_4052" data-name="Tracé 4052" d="M865.7,151.017H837.415V122.728H865.7Zm-27.059-1.23h25.828V123.959H838.645Z" transform="translate(-165.978 -122.728)" fill="#3f3d56"/>
    <rect id="Rectangle_676" data-name="Rectangle 676" width="23" height="24" transform="translate(897 457)" fill="#3f3d56"/>
    <path id="Tracé_4053" data-name="Tracé 4053" d="M1147.7,679.017H1119.41V650.728H1147.7Zm-27.059-1.23h25.829V651.959H1120.64Z" transform="translate(-213.349 -211.424)" fill="#3f3d56"/>
    <path id="Tracé_4054" data-name="Tracé 4054" d="M1051.328,337.405h-1.979V283.19a31.378,31.378,0,0,0-31.378-31.378H903.1a31.378,31.378,0,0,0-31.379,31.379V580.619A31.378,31.378,0,0,0,903.105,612h114.862a31.378,31.378,0,0,0,31.378-31.378V376h1.979Z" transform="translate(-171.742 -144.412)" fill="#3f3d56"/>
    <path id="Tracé_4055" data-name="Tracé 4055" d="M1044.416,287.012v297a23.435,23.435,0,0,1-23.434,23.438H905.566a23.433,23.433,0,0,1-23.429-23.434v-297a23.431,23.431,0,0,1,23.427-23.43h14.005a11.132,11.132,0,0,0,10.309,15.334h65.8a11.132,11.132,0,0,0,10.309-15.334h14.993a23.432,23.432,0,0,1,23.433,23.43Z" transform="translate(-173.491 -146.39)" fill="#3f3d56"/>
    <rect id="Rectangle_677" data-name="Rectangle 677" width="34.382" height="10.189" transform="translate(772.593 313.019)" fill="#f2f2f2"/>
    <rect id="Rectangle_678" data-name="Rectangle 678" width="117.514" height="4.367" transform="translate(731.026 233.692)" fill="#f2f2f2"/>
    <rect id="Rectangle_679" data-name="Rectangle 679" width="117.514" height="4.367" transform="translate(731.026 247.52)" fill="#f2f2f2"/>
    <rect id="Rectangle_680" data-name="Rectangle 680" width="117.514" height="4.367" transform="translate(731.026 261.348)" fill="#f2f2f2"/>
    <rect id="Rectangle_681" data-name="Rectangle 681" width="117.514" height="4.367" transform="translate(731.026 275.175)" fill="#f2f2f2"/>
    <rect id="Rectangle_682" data-name="Rectangle 682" width="117.514" height="4.367" transform="translate(731.026 289.002)" fill="#f2f2f2"/>
    <rect id="Rectangle_683" data-name="Rectangle 683" width="20.377" height="20.377" transform="translate(773.511 175.704)" fill="#f2f2f2"/>
    <path id="Tracé_4056" data-name="Tracé 4056" d="M969.474,340.032v24.744h24.744V340.032ZM993.145,363.7h-22.6v-22.6h22.6Z" transform="translate(-188.162 -159.232)" fill="#3f3d56"/>
    <path id="Tracé_4057" data-name="Tracé 4057" d="M1044.416,584.7v31.716a23.435,23.435,0,0,1-23.434,23.438H905.566a23.433,23.433,0,0,1-23.429-23.434V456.492l97.238,76.82,1.664,1.315,18.088,14.286,1.689,1.339Z" transform="translate(-173.491 -178.796)" opacity="0.1"/>
    <circle id="Ellipse_633" data-name="Ellipse 633" cx="36.499" cy="36.499" r="36.499" transform="translate(743.3 378.433)" fill="#f2f2f2"/>
    <path id="Tracé_4058" data-name="Tracé 4058" d="M335.971,748.043a72.385,72.385,0,1,1,72.385-72.385A72.385,72.385,0,0,1,335.971,748.043Zm0-143.107a70.721,70.721,0,1,0,70.721,70.721A70.721,70.721,0,0,0,335.971,604.936Z" transform="translate(-69.584 -203.452)" fill="#3f3d56"/>
    <path id="Tracé_4059" data-name="Tracé 4059" d="M971.347,636.794a45.761,45.761,0,1,1,45.761-45.761A45.761,45.761,0,0,1,971.347,636.794Zm0-89.858a44.1,44.1,0,1,0,44.1,44.1,44.1,44.1,0,0,0-44.1-44.1Z" transform="translate(-180.79 -193.709)" fill="#f2f2f2"/>
  </g>
</svg>
